<svg width="222" height="170" viewBox="0 0 222 170" fill="none" xmlns="http://www.w3.org/2000/svg">
<mask id="path-1-inside-1_1101_2214" fill="white">
<path fill-rule="evenodd" clip-rule="evenodd" d="M198.903 112.825C202.535 104.107 204.508 94.7451 204.508 85C204.508 38.0558 158.727 0 102.254 0C45.7806 0 0 38.0558 0 85C0 131.944 45.7806 170 102.254 170C135.458 170 164.965 156.844 183.645 136.461C200.629 128.799 209.629 123.051 221.496 109.771C212.851 111.394 206.106 112.511 198.903 112.825Z"/>
</mask>
<path fill-rule="evenodd" clip-rule="evenodd" d="M198.903 112.825C202.535 104.107 204.508 94.7451 204.508 85C204.508 38.0558 158.727 0 102.254 0C45.7806 0 0 38.0558 0 85C0 131.944 45.7806 170 102.254 170C135.458 170 164.965 156.844 183.645 136.461C200.629 128.799 209.629 123.051 221.496 109.771C212.851 111.394 206.106 112.511 198.903 112.825Z" fill="#E8491F" fill-opacity="0.1"/>
<path d="M198.903 112.825L194.287 110.902L191.263 118.163L199.121 117.82L198.903 112.825ZM183.645 136.461L181.589 131.903L180.652 132.326L179.958 133.083L183.645 136.461ZM221.496 109.771L225.224 113.103L235.015 102.146L220.573 104.857L221.496 109.771ZM204.508 85H199.508C199.508 94.0604 197.675 102.77 194.287 110.902L198.903 112.825L203.519 114.748C207.394 105.444 209.508 95.4297 209.508 85H204.508ZM102.254 0V5C156.87 5 199.508 41.6425 199.508 85H204.508H209.508C209.508 34.4691 160.584 -5 102.254 -5V0ZM0 85H5C5 41.6425 47.6372 5 102.254 5V0V-5C43.924 -5 -5 34.4691 -5 85H0ZM102.254 170V165C47.6372 165 5 128.357 5 85H0H-5C-5 135.531 43.924 175 102.254 175V170ZM183.645 136.461L179.958 133.083C162.303 152.348 134.174 165 102.254 165V170V175C136.741 175 167.627 161.34 187.331 139.839L183.645 136.461ZM221.496 109.771L217.768 106.44C206.481 119.07 198.115 124.448 181.589 131.903L183.645 136.461L185.701 141.019C203.144 133.151 212.777 127.033 225.224 113.103L221.496 109.771ZM198.903 112.825L199.121 117.82C206.704 117.49 213.748 116.313 222.418 114.686L221.496 109.771L220.573 104.857C211.954 106.475 205.507 107.532 198.685 107.83L198.903 112.825Z" fill="#E8491F" mask="url(#path-1-inside-1_1101_2214)"/>
</svg>
