<svg width="393" height="693" viewBox="0 0 393 693" fill="none" xmlns="http://www.w3.org/2000/svg">
<g clip-path="url(#clip0_1110_2376)">
<rect width="393" height="693" fill="#FEEFE3"/>
<path d="M-708.135 198.998C-708.135 198.998 -857.691 -441.814 -852.452 -447.063C-847.213 -452.313 604.526 -452.312 606.908 -447.063C609.289 -441.815 532.13 -107.809 532.13 -107.809C532.13 -107.809 522.604 -75.84 535.94 -65.3427C549.276 -54.8454 887.92 137.446 887.92 148.42C887.92 159.395 885.062 166.552 887.92 178.958C890.778 191.364 950.791 285.362 967.461 310.174C984.131 334.986 1039.86 362.661 1037.95 368.864C1036.05 375.067 332.563 602.668 332.563 602.668L-370.92 843.63C-370.92 843.63 -391.469 850.304 -404.261 855.558C-414.273 859.671 -429.504 867.01 -429.504 867.01C-429.504 867.01 -474.523 887.793 -509.045 891.345C-543.128 894.851 -600.969 885.142 -600.969 885.142C-600.969 885.142 -673.842 870.827 -681.939 861.761C-690.036 852.695 -674.795 847.447 -701.943 827.406C-729.092 807.366 -764.978 804.554 -769.577 795.248C-779.103 775.973 -760.051 756.141 -760.051 733.408C-760.051 714.96 -776.721 706.21 -776.721 688.556C-776.721 670.901 -760.051 561.633 -760.051 561.633L-716.232 356.935C-716.232 356.935 -703.416 299.779 -702.896 272.002C-702.376 244.226 -708.135 198.998 -708.135 198.998Z" fill="#A3C690"/>
<path d="M405.434 578.809L389.717 569.008M349.554 545.335L195.39 598.849L201.581 615.549M349.554 545.335L369.713 556.551M349.554 545.335L357.805 542.068M389.717 569.008L208.726 634.158L201.581 615.549M389.717 569.008L369.713 556.551M369.713 556.551L201.581 615.549" stroke="white" stroke-linecap="round" stroke-linejoin="round"/>
<path d="M204.916 10.5228C212.06 -6.17749 334.467 -340.66 339.23 -346.863C343.993 -353.066 352.054 -349.946 359.234 -346.863C365.903 -344 375.905 -340.183 374.476 -335.411C331.551 -192.073 253.974 6.22842 245.401 25.3145C236.828 44.4005 227.301 45.8319 213.966 39.629C203.187 34.6154 197.772 27.2231 204.916 10.5228Z" fill="#B7D8F3"/>
<path d="M157.287 -27.6477C164.431 -44.348 275.884 -349.247 280.647 -355.45C285.41 -361.653 292.554 -363.562 300.175 -360.699C305.89 -358.552 311.606 -350.459 310.177 -346.384C260.642 -205.148 190.627 -16.1961 183.959 3.36707C177.291 22.9302 170.623 21.0216 157.287 17.2044C145.86 13.9337 150.143 -10.9475 157.287 -27.6477Z" fill="#B7D8F3"/>
<path d="M266.832 71.1141C273.501 52.5121 345.898 -153.616 350.661 -164.591C355.423 -175.566 356.376 -175.566 361.139 -173.657C365.902 -171.748 363.044 -160.775 362.091 -158.389C361.138 -156.003 272.548 92.586 269.211 98.3118C265.874 104.038 263.975 117.301 257.782 114.535C251.589 111.769 260.162 89.716 266.832 71.1141Z" fill="#B7D8F3"/>
<path d="M277.311 114.064C275.224 125.922 266.356 159.393 267.784 166.073C269.212 172.753 272.072 184.682 280.645 186.113C289.218 187.545 424.962 188.499 432.106 188.976C439.25 189.453 443.537 170.367 444.013 167.027C444.489 163.687 447.823 94.0233 447.823 88.2975C447.823 82.5717 451.634 -29.5587 451.158 -39.1017C450.918 -43.9026 448.777 -105.426 448.3 -157.912C443.982 -209.229 437.345 -245.231 435.916 -248.571C434.488 -251.911 424.009 -255.728 421.151 -255.728C418.294 -255.728 416.388 -253.82 414.007 -250.957C411.625 -248.094 403.529 -231.393 401.147 -226.145C399.824 -223.229 363.044 -133.578 331.132 -41.4875C303.031 31.0395 278.239 108.793 277.311 114.064Z" fill="#B7D8F3"/>
<path d="M310.652 462.864C310.652 462.864 319.702 422.306 319.702 411.332C319.702 400.357 293.029 313.039 293.029 313.039C293.029 313.039 277.702 286.15 270.643 267.709C263.792 249.809 260.694 239.34 257.307 220.472C255.45 210.121 256.505 203.957 253.973 193.751C250.556 179.979 247.943 171.88 239.684 160.351C231.39 148.771 224.242 144.116 212.536 136.016C202.605 129.145 196.685 125.476 185.387 121.224C174.49 117.123 167.968 114.163 156.333 114.544C146.142 114.878 140.104 116.45 131.09 121.224C116.874 128.753 103.941 152.239 103.941 152.239" stroke="#B7D8F3" stroke-width="3" stroke-linecap="round"/>
<path d="M-204.22 692.85C-209.459 695.236 -249.467 751.063 -257.564 757.266L-230.892 681.876L-194.694 690.465C-194.694 690.465 -198.98 690.465 -204.22 692.85Z" fill="#B7D8F3"/>
<path d="M-648.6 410.377L-653.84 480.041V526.802C-653.84 526.802 -652.887 544.934 -651.934 552.568C-650.982 560.203 -644.314 580.72 -644.314 580.72C-644.314 580.72 -634.788 616.029 -633.835 619.846C-632.883 623.664 -615.736 669.47 -611.926 674.719C-608.116 679.967 -604.782 684.262 -604.782 684.262M-604.782 684.262C-604.782 684.262 -594.779 671.379 -590.493 667.561C-586.206 663.744 -581.443 658.973 -577.633 658.018C-573.823 657.064 -560.963 661.359 -560.963 661.359M-604.782 684.262C-604.782 684.262 -598.113 696.668 -590.493 703.348C-582.872 710.028 -571.441 717.185 -571.441 717.185M-571.441 717.185C-571.441 717.185 -563.82 713.368 -556.676 706.211C-549.532 699.053 -546.674 696.668 -545.721 691.896C-544.769 687.125 -548.103 673.287 -548.103 673.287M-571.441 717.185L-550.96 732.454C-550.96 732.454 -444.747 799.732 -431.411 803.549C-418.075 807.367 -390.45 801.641 -390.45 801.641C-390.45 801.641 -345.202 792.575 -333.771 788.758C-322.34 784.941 -286.142 771.103 -286.142 771.103L-257.564 757.266M-257.564 757.266C-249.467 751.063 -209.459 695.236 -204.22 692.85C-198.98 690.465 -194.694 690.465 -194.694 690.465M-257.564 757.266L-230.892 681.876L-194.694 690.465M-194.694 690.465L-109.914 696.191C-109.914 696.191 -93.2436 695.236 -85.1466 692.85C-77.0496 690.465 -42.7566 668.039 -42.7566 668.039L-0.366578 636.547L32.4976 613.643C32.4976 613.643 39.1657 608.395 46.7864 605.055C54.407 601.715 95.3682 586.923 95.3682 586.923L146.331 568.314L209.202 544.457C209.202 544.457 252.068 530.142 256.355 528.233C260.642 526.325 275.407 512.487 275.407 512.487" stroke="#B7D8F3" stroke-width="2" stroke-linecap="round" stroke-linejoin="round"/>
<path d="M188.246 -393.624C181.101 -396.486 94.4159 -409.847 86.319 -410.801C78.2222 -411.755 19.1617 -412.232 12.9699 -412.232C6.77808 -412.232 -60.8554 -410.801 -60.8554 -410.801C-60.8554 -410.801 -178.95 -409.106 -274.711 -405.552C-337.769 -403.212 -391.143 -398.865 -394.736 -397.918C-403.786 -395.532 -412.835 -390.283 -414.74 -386.943C-416.646 -383.603 -423.314 -364.517 -423.79 -362.609C-424.266 -360.7 -430.458 -331.594 -429.506 -327.3C-428.553 -323.005 -421.885 -316.802 -419.98 -314.894C-418.075 -312.985 -411.406 -307.259 -409.025 -303.919C-406.643 -300.579 -405.215 -296.762 -404.262 -291.99C-403.309 -287.219 -407.596 -285.31 -407.12 -281.493C-406.643 -277.676 -324.721 -197.992 -324.721 -197.992L-251.848 -123.556L-192.788 -67.7295L-134.681 -12.38C-134.681 -12.38 -124.202 -8.08566 -122.773 -6.65421C-121.345 -5.22278 -82.7646 34.3808 -79.907 36.2894C-77.0494 38.198 -55.6159 50.1267 -55.1398 52.5125C-54.6636 54.8982 -57.5211 74.4614 -57.5212 76.8472C-57.5214 79.2329 -52.2819 82.573 -48.948 83.0501C-45.6141 83.5273 -38.9457 78.2786 -36.0881 78.2786C-33.2305 78.2786 -20.8466 86.3902 -19.4178 87.3445C-17.9891 88.2988 -17.0363 93.0703 -17.0364 94.5018C-17.0365 95.9332 -24.6569 104.999 -24.6571 107.862C-24.6572 110.725 -6.5578 134.105 -5.60538 135.537C-4.65292 136.968 8.20724 145.557 11.0648 145.557C13.9225 145.557 21.0669 142.217 22.0196 141.263C22.9723 140.308 54.4075 115.019 54.4075 115.019C54.4075 115.019 71.5538 97.8418 72.9828 94.5018C74.4118 91.1617 72.9828 71.5985 72.9828 71.5985L69.6488 48.2181L64.4096 27.2235L52.5023 -6.65421C52.5023 -6.65421 48.2155 -25.7403 48.2157 -29.5575C48.2158 -33.3747 50.1207 -48.6435 51.5497 -52.9378C52.9787 -57.2322 78.222 -93.4957 78.222 -93.4957L137.759 -188.449L165.384 -244.275C165.384 -244.275 171.575 -265.747 172.052 -270.041C172.528 -274.336 169.67 -285.787 169.67 -285.787L167.765 -307.736C167.765 -307.736 166.812 -323.96 167.765 -330.64C168.718 -337.32 177.291 -351.157 177.767 -355.929C178.244 -360.7 176.338 -364.517 176.815 -367.857C177.291 -371.197 180.625 -380.263 184.435 -381.695C188.246 -383.126 203.963 -381.695 203.963 -381.695C203.963 -381.695 206.821 -381.695 205.868 -384.081C204.916 -386.466 195.39 -390.761 188.246 -393.624Z" fill="#B7D8F3"/>
<path d="M-175.164 460.955C-172.12 462.454 -118.961 544.934 -114.198 546.365C-109.435 547.797 94.4178 464.772 94.4178 464.772C99.657 462.387 123.948 445.686 128.235 442.346C132.521 439.006 148.715 417.534 150.62 414.672C152.525 411.809 166.338 386.52 167.767 381.748C169.196 376.977 167.291 352.642 166.338 346.439C165.385 340.236 150.62 317.333 147.763 313.516C144.905 309.698 72.0321 230.968 72.0321 230.968L63.9351 217.608L54.4093 204.248C54.4093 204.248 34.4052 185.639 32.9764 185.639C31.5475 185.639 19.1636 191.365 16.7821 190.888C14.4006 190.411 13.4481 190.888 9.63776 186.593C5.82733 182.299 -8.4613 156.533 -11.7954 152.716C-15.1295 148.899 -19.8923 145.558 -25.1316 144.604C-30.3708 143.65 -30.847 144.604 -36.5626 142.696C-42.2782 140.787 -114.198 58.2399 -118.009 54.8998C-121.819 51.5598 -203.265 -31.4644 -207.551 -36.236C-211.838 -41.0075 -245.655 -68.6822 -245.655 -68.6822L-332.34 -154.092C-332.34 -154.092 -405.213 -225.665 -407.118 -227.573C-409.023 -229.482 -463.32 -289.603 -463.32 -289.603L-528.096 -355.45C-528.096 -355.45 -546.672 -371.196 -550.958 -374.536C-555.245 -377.876 -575.725 -389.328 -579.536 -391.236C-583.346 -393.145 -607.637 -402.211 -615.258 -402.211C-622.878 -402.211 -626.689 -399.348 -630.023 -397.916C-633.357 -396.485 -650.027 -385.51 -651.456 -379.307C-652.885 -373.104 -644.312 -354.495 -642.406 -351.155C-640.501 -347.815 -619.544 -310.598 -619.544 -310.598C-619.544 -310.598 -457.605 -19.5357 -453.318 -15.7185C-449.032 -11.9013 -440.458 -9.99268 -439.03 -5.6983C-437.601 -1.40396 -441.411 1.45895 -441.887 4.79901C-442.364 8.13907 -439.03 10.5248 -439.03 13.8649C-439.03 17.2049 -468.083 204.248 -468.083 204.248C-468.083 204.248 -477.133 249.1 -477.609 254.349C-478.086 259.597 -479.038 276.775 -477.609 280.592C-476.18 284.409 -454.747 316.378 -454.747 316.378C-454.747 316.378 -390.448 410.377 -387.114 415.149C-383.78 419.92 -344.724 470.498 -339.008 476.224C-333.293 481.95 -326.148 488.153 -318.528 492.924C-310.907 497.696 -282.806 503.899 -278.043 505.33C-273.28 506.762 -261.849 512.487 -259.467 515.35C-257.086 518.213 -256.61 520.122 -255.657 524.893C-254.704 529.665 -254.704 544.934 -253.752 549.228C-252.799 553.522 -247.084 561.634 -241.368 567.36C-235.653 573.086 -222.793 579.289 -212.791 584.06C-202.789 588.831 -165.162 603.146 -157.065 610.78C-148.968 618.415 -143.252 628.435 -136.108 630.821C-128.963 633.207 -114.675 637.501 -109.912 638.455C-105.149 639.41 -87.0496 639.887 -82.7629 637.501C-78.4763 635.115 -71.332 630.821 -70.3793 626.526C-69.4268 622.232 -113.722 573.086 -117.532 566.405C-121.343 559.725 -178.652 467.102 -178.974 463.341C-179.296 459.579 -178.207 459.456 -175.164 460.955Z" fill="#B7D8F3"/>
<rect width="17.1465" height="49.6236" transform="matrix(0.999605 -0.0281027 0.0280018 0.999608 340.445 344.302)" fill="#B2B3B4"/>
<rect width="18.0991" height="33.4005" transform="matrix(0.999582 -0.0289235 0.0288196 0.999585 367.33 345.275)" fill="#B2B3B4"/>
<path d="M123.946 504.373C123.946 504.373 137.137 500.691 145.402 497.728C154.103 494.608 167.315 488.709 167.315 488.709M167.315 488.709C167.315 488.709 170.653 495.652 172.793 500.101M167.315 488.709C194.355 473.574 204.668 462.43 219.813 440.769M219.813 440.769L266.834 474.47M219.813 440.769C232.433 414.709 236.035 400.394 237.161 375.267M237.161 375.267H249.03M237.161 375.267C236.719 350.446 233.983 339.698 227.117 323.056" stroke="#FDC759" stroke-width="3" stroke-linecap="round" stroke-linejoin="round"/>
<path d="M-96.0993 571.652C-99.4335 571.652 -114.199 548.272 -114.675 545.886C-115.151 543.5 40.5967 483.379 53.9329 479.085C67.2691 474.791 97.5591 464.814 119.661 447.116C136.241 433.84 145.24 424.759 155.383 406.081C162.021 393.858 166.52 386.539 167.767 372.68C169.184 356.918 165.533 347.572 159.193 333.077C150.496 313.19 130.616 297.768 123.948 290.133C117.28 282.499 75.8419 238.124 73.4606 233.83C71.0794 229.535 62.1572 214.102 52.9801 203.292C46.3251 195.453 32.976 188.023 32.976 185.637C32.976 183.251 49.6462 170.368 53.9329 169.414C58.2195 168.46 207.299 301.585 212.538 312.559C217.777 323.533 219.761 330.858 222.54 343.097C225.944 358.085 227.675 366.875 226.827 382.223C226.006 397.076 224.172 405.601 218.73 419.441C212.45 435.411 207.143 444.168 195.392 456.659C178.632 474.473 141.57 488.628 141.57 488.628C141.57 488.628 -92.7651 571.652 -96.0993 571.652Z" fill="#EDEACA"/>
<path d="M212.061 312.082C212.061 313.514 159.193 331.646 158.24 330.691C157.287 329.737 156.854 328.036 155.859 326.397C154.813 324.675 154.153 323.755 153.001 322.102C150.721 318.833 149.27 317.125 146.809 313.991C145.336 312.115 144.573 311.01 142.999 309.219C140.912 306.847 139.515 305.73 137.283 303.494L130.615 296.813C128.569 294.764 127.398 293.638 125.376 291.565C120.592 286.661 113.469 278.682 113.469 278.682L103.943 268.184L90.1302 252.916L80.6043 242.418C80.6043 242.418 74.8888 236.215 73.4599 234.307C72.0311 232.398 72.0239 231.681 71.0785 230.012C68.0705 224.704 65.8756 221.738 62.5058 216.652C59.3367 211.87 57.7402 209.013 53.9325 204.723C50.0829 200.387 48.0263 198.266 43.4535 194.703C39.1669 191.363 32.4994 187.069 32.9757 185.637C33.452 184.206 33.9094 183.857 34.8801 182.774C37.2546 180.126 39.2269 178.766 42.0247 176.572C43.8122 175.169 44.8901 174.48 46.7876 173.231C48.2541 172.266 49.0363 171.647 50.5979 170.846C51.8586 170.199 52.9795 169.414 53.932 169.414C54.8844 169.414 55.361 169.891 57.266 171.323C59.171 172.754 60.1214 173.711 62.0289 175.14C63.3103 176.1 67.4702 179.837 68.697 180.866C68.697 180.866 77.7317 188.385 83.4621 193.272C86.0736 195.499 87.5312 196.756 90.1302 198.998C99.1199 206.753 104.028 211.253 112.992 219.038C118.373 223.711 121.445 226.268 126.805 230.967C136.023 239.048 141.111 243.672 150.143 251.961C150.143 251.961 163.202 264.18 171.576 272.002C182.358 282.071 189.019 287.091 199.201 297.768C204.387 303.206 212.061 310.651 212.061 312.082Z" fill="#F1EBB2"/>
<path d="M-699.563 198.998L-697.658 179.435L-705.755 145.08L-740.524 -4.74523L-802.919 -273.381L-834.83 -406.029L-803.633 -417.003M-699.563 198.998L-652.41 242.896L-610.02 289.657L-548.102 259.156M-699.563 198.998L-712.899 197.09M-553.818 229.536V249.099L-608.115 282.5L-610.777 279.508M-553.818 229.536L-570.964 210.45L-579.537 186.592L-514.285 190.887L-484.755 195.181L-449.986 10.5236L-663.841 -370.243L-661.997 -393.146M-553.818 229.536L-546.197 233.83M-582.872 -423.684H-638.598L-661.46 -399.826L-661.997 -393.146M-582.872 -423.684L-562.391 -416.049L-447.128 -314.893L-342.82 -208.489L-218.032 -82.9979C-218.032 -82.9979 -49.9004 103.091 -24.6569 125.04C0.586543 146.989 12.9701 150.329 12.9701 150.329C12.9701 150.329 62.9808 148.42 67.2674 145.08C71.5541 141.74 133.948 102.137 133.948 102.137C133.948 102.137 142.045 99.2736 152.524 97.8422C163.002 96.4107 165.384 96.4107 171.575 97.8422C177.767 99.2736 199.2 105.477 203.487 107.862C207.774 110.248 247.782 141.263 251.593 145.08C255.403 148.897 265.405 164.643 268.263 175.141C271.121 185.638 273.502 211.404 273.502 211.404L303.032 291.088C303.032 291.088 279.694 307.788 278.741 310.174C277.789 312.56 288.743 324.966 288.743 324.966L302.556 374.112C302.556 374.112 309.7 420.396 308.271 428.031C306.842 435.665 270.644 488.629 269.215 491.492C267.786 494.354 124.899 550.181 124.899 550.181L57.2653 588.353L21.5433 601.236L-37.5168 648.474L-79.9069 663.743L-131.346 668.037L-165.163 663.743L-174.213 667.369M-582.872 -423.684L-598.589 -416.049M-644.313 398.447L-657.649 404.173L-670.509 484.811L-661.46 558.77L-624.309 679.489L-591.445 716.707L-562.867 739.133L-427.124 815L-336.152 799.254L-268.042 771.579L-233.273 752.016L-188.502 704.301L-186.596 672.332L-174.213 667.369M-644.313 398.447L-625.738 402.264L-600.494 401.31L-598.113 403.447M-644.313 398.447L-724.807 384.133M-396.165 617.459L-319.006 529.664L-329.96 521.075L-372.35 459.522L-418.551 398.924L-463.798 347.392L-480.469 341.666V322.103L-492.281 307.311M-396.165 617.459L-477.135 530.618L-556.675 442.822L-577.632 421.828L-598.113 403.447M-396.165 617.459C-396.165 617.459 -387.592 630.342 -383.781 632.728C-379.971 635.114 -292.81 690.941 -292.81 690.941C-280.604 695.531 -274.686 696.299 -267.566 690.941C-267.566 690.941 -241.37 667.369 -237.083 666.606C-234.614 666.166 -211.267 670.246 -194.693 669.469C-186.662 669.092 -174.213 667.369 -174.213 667.369M-533.848 252.811L-504.523 289.657L-497.615 300.631L-494.948 303.971M-533.848 252.811L-548.102 259.156M-533.848 252.811L-546.197 233.83M-598.113 403.447L-593.826 399.553M-492.281 307.311L-494.948 303.971M-492.281 307.311L-531.908 343.308M-494.948 303.971L-537.624 293.951M-537.624 293.951C-541.695 312.8 -540.703 323.592 -531.908 343.308M-537.624 293.951L-548.102 259.156M-531.908 343.308L-593.826 399.553M-548.102 259.156L-564.772 243.85M-564.772 243.85L-546.197 233.83M-564.772 243.85L-610.777 279.508M-610.777 279.508L-666.699 216.653L-638.121 135.537L-634.311 81.1419L-738.143 -378.831L-760.529 -426.069L-772.436 -427.978L-803.633 -417.003M-593.826 399.553L-652.886 292.52M-803.633 -417.003L-845.785 -419.389M-803.633 -417.003L-700.039 -419.389L-686.227 -423.684M-686.227 -423.684L-661.997 -393.146M-686.227 -423.684L-626.69 -416.049H-598.589M-598.589 -416.049L-576.68 -406.029" stroke="white" stroke-linecap="round" stroke-linejoin="round"/>
<path d="M411.626 -268.61C412.103 -266.701 449.73 -252.387 450.206 -251.432C450.682 -250.478 457.35 -172.225 457.35 -172.225L462.59 -107.333L464.495 16.2491L460.208 112.156C460.208 112.156 463.066 185.16 462.59 186.592C462.113 188.023 457.35 210.927 455.922 211.881C454.493 212.835 288.267 215.221 287.314 216.175C286.361 217.13 318.273 293.951 317.32 296.337C316.368 298.722 302.079 311.128 301.603 312.56C301.126 313.991 306.366 336.417 306.842 337.372C307.318 338.326 317.797 345.96 318.273 346.915C318.749 347.869 316.368 371.249 316.368 372.204C316.368 373.158 326.846 409.898 327.323 412.284C327.799 414.67 327.799 451.411 327.799 453.796C327.799 456.182 324.465 484.334 323.988 486.72C323.512 489.105 312.557 516.303 311.129 518.689C309.7 521.075 286.361 540.638 285.409 541.115C284.456 541.592 267.31 543.978 265.405 544.455C263.499 544.932 140.616 592.647 138.711 592.17C136.806 591.693 124.422 555.429 124.898 553.998C125.375 552.567 264.928 506.76 265.881 506.283C266.287 506.079 270.598 499.617 275.407 492.202M411.626 -268.61C411.15 -270.518 431.154 -328.254 430.202 -330.162M411.626 -268.61L376.75 -172.225M430.202 -330.162C429.249 -332.071 386.383 -341.614 384.001 -342.091M430.202 -330.162C458.316 -326.232 473.612 -326.924 499.264 -338.751C530.517 -356.522 547.359 -374.329 575.471 -428.648M384.001 -342.091C363.896 -345.807 353.332 -350.817 334.943 -361.654M384.001 -342.091C383.087 -342.274 359.055 -275.306 329.746 -192.743M334.943 -361.654C335.896 -359.268 247.782 -118.307 247.782 -118.307L204.915 -0.928345L185.864 42.0152C185.864 42.0152 179.196 85.436 180.148 86.8674C181.101 88.2989 207.297 95.9332 208.726 96.8876C210.155 97.8419 220.633 112.156 221.586 112.156C222.172 112.156 282.746 -60.3446 329.746 -192.743M334.943 -361.654C334.687 -362.295 332.029 -364.208 328.275 -366.664M258.26 -420.821C260.165 -419.389 299.698 -384.08 299.698 -384.08C299.698 -384.08 318.049 -373.356 328.275 -366.664M258.26 -420.821C256.355 -422.252 240.161 -428.933 237.78 -429.41C235.398 -429.887 -554.771 -427.501 -559.534 -427.024C-564.297 -426.547 -573.822 -422.252 -574.775 -421.298C-575.728 -420.344 -577.633 -407.938 -577.157 -406.984C-576.68 -406.029 -570.012 -399.826 -568.583 -399.349C-567.154 -398.872 -556.676 -399.826 -555.247 -399.349C-553.818 -398.872 -14.6553 140.785 -13.7027 141.263C-12.7502 141.74 17.2563 150.328 18.2088 150.806C18.6357 151.019 26.8105 151.233 35.8318 151.447M258.26 -420.821C277.846 -419.602 288.718 -420.462 307.795 -426.07L344.469 -426.423M289.219 289.179C289.219 288.225 278.741 275.342 278.264 273.433C277.788 271.525 274.85 254.743 272.073 242.896C267.47 223.26 257.784 193.272 257.784 193.272C257.784 193.272 253.413 181.024 251.116 174.975M289.219 289.179C305.041 312.499 313.786 325.695 323.988 354.549C330.391 399.881 333.538 425.849 338.277 473.36C337.645 495.727 333.01 504.234 323.988 518.689M289.219 289.179C289.219 289.939 282.578 305.516 279.63 312.56M278.264 315.9C277.788 317.331 282.551 335.94 283.027 338.803C283.504 341.666 277.53 356.94 275.407 368.863C272.849 383.23 274.454 391.767 272.073 406.081C269.691 420.396 267.755 423.133 265.881 434.233C264.442 442.756 263.023 455.705 263.023 456.182C263.023 456.659 289.219 469.065 289.219 470.019C289.219 470.189 288.511 471.43 287.341 473.36M278.264 315.9C278.264 315.9 262.547 329.737 256.355 329.26C250.163 328.783 238.256 315.9 228.73 315.9C219.204 315.9 217.832 320.194 217.832 320.194M278.264 315.9C278.362 315.608 278.875 314.364 279.63 312.56M605.001 -428.932L575.471 -428.648M575.471 -428.648L344.469 -426.423M328.275 -366.664L344.469 -426.423M251.116 174.975C247.308 164.95 243.731 156.29 242.543 155.1C240.637 153.191 221.109 133.151 219.204 131.72C217.299 130.288 188.721 114.065 181.577 112.156C174.433 110.248 160.144 108.339 157.762 108.816C155.381 109.293 125.375 121.699 125.375 121.699C125.375 121.699 74.4113 155.1 72.9825 155.1C71.5536 155.1 61.5514 152.714 60.1226 152.237C59.334 151.974 46.9411 151.71 35.8318 151.447M251.116 174.975L376.75 -172.225M376.75 -172.225L329.746 -192.743M323.988 518.689L275.407 492.202M323.988 518.689L360.187 543.024M275.407 492.202C279.861 485.334 284.741 477.648 287.341 473.36M287.341 473.36L371.618 523.39M452.111 571.175L371.618 523.39M371.618 523.39L360.187 543.024M360.187 543.024L422.105 583.104M360.187 543.024L323.988 520.12C313.115 537.705 305.744 545.007 289.219 551.135L147.761 599.944M-196.123 712.412L-95.1485 713.843C-60.5417 708.466 -43.519 701.115 -17.9892 679.489C18.6686 654.196 42.5661 641.241 88.7003 620.322L147.761 599.944M35.8318 151.447L57.5464 170.369M112.991 502.466C182.362 478.198 207.297 459.045 223.967 412.284C232.472 388.427 231.112 350.732 217.832 320.194M112.991 502.466L147.761 599.944M112.991 502.466L-65.6184 565.944M-45.1379 651.814L-90.3856 596.942C-96.7051 584.574 -95.0452 579.85 -87.0516 573.561L-65.6184 565.944M217.832 320.194C214.446 313.615 210.631 306.357 205.392 299.2L57.5464 170.369M279.63 312.56L238.256 239.079C231.572 230.077 225.64 227.104 213.965 222.855L84.4136 171.323C73.4179 166.559 67.6968 167.76 57.5464 170.369M-65.6184 565.944C-65.6184 565.944 -43.2327 616.028 -42.2801 620.322C-41.3275 624.616 -42.2801 649.905 -42.2801 649.905" stroke="white"/>
<path d="M-137.063 511.533L62.0276 427.555C93.9392 412.286 102.512 396.063 107.275 383.657C112.038 371.251 107.275 350.257 107.275 350.257L155.381 331.648" stroke="black" stroke-linecap="round" stroke-linejoin="round" stroke-dasharray="2 2"/>
<path d="M575.822 439.521C575.88 445.456 578.892 449.094 575.822 454.151C572.923 458.926 569.056 459.023 563.619 460.095C559.099 460.986 549.156 461.466 544.184 457.809C539.213 454.151 540.569 415.291 540.569 415.291C540.569 415.291 540.668 404.667 536.501 400.661C532.156 396.484 528.255 396.257 522.491 397.918C515.327 399.982 512.391 405.319 510.287 412.547C508.542 418.542 509.22 423.52 510.287 428.549C511.499 434.256 514.355 435.407 514.355 441.807C514.355 448.208 494.017 489.355 491.306 493.47C488.594 497.584 495.826 512.671 493.566 516.329C491.306 519.986 472.323 531.416 467.352 527.759C462.38 524.101 454.697 488.44 452.889 485.697C451.081 482.954 447.464 479.308 442.041 480.668C436.618 482.028 421.705 515.415 413.569 515.872C405.432 516.329 399.558 506.728 393.23 503.985C386.903 501.242 383.287 502.613 382.383 494.841C381.479 487.069 389.244 485.017 390.971 480.668C392.352 477.189 391.875 471.525 391.875 471.525C391.888 467.732 372.572 473.98 364.757 469.239C359.013 465.754 358.429 452.323 358.429 452.323C358.429 452.323 356.17 441.35 359.333 436.321C362.606 431.118 366.844 431.156 372.892 430.378C381.768 429.235 387.355 434.035 396.394 436.321C405.432 438.607 415.884 438.19 419.895 437.235C423.906 436.281 427.126 431.292 427.126 431.292C427.126 431.292 438.861 411.274 442.041 397.003C443.49 390.5 442.945 382.83 444.753 380.087C446.562 377.344 456.504 360.428 461.023 360.428C465.543 360.428 469.235 365.727 475.034 365.457C480.175 365.218 482.587 362.039 487.69 362.714C492.349 363.331 496.277 366.829 496.277 366.829C496.277 366.829 500.469 371.592 503.507 372.772C508.194 374.593 511.878 373.133 516.163 370.486C523.408 366.009 520.268 357.015 524.298 349.456C527.552 343.353 529.27 338.026 533.789 336.197C538.308 334.369 550.512 334.369 553.676 337.112C556.84 339.855 560.603 343.191 559.099 349.913C556.848 359.978 539.022 355.457 536.501 365.457C535.628 368.917 535.145 372.772 538.309 375.058C541.473 377.344 574.014 396.546 574.014 396.546C574.014 396.546 577.178 397.917 579.889 406.147C582.601 414.376 575.701 427.264 575.822 439.521Z" stroke="#D7A23C" stroke-linecap="round" stroke-linejoin="round"/>
</g>
<defs>
<clipPath id="clip0_1110_2376">
<rect width="393" height="693" fill="white"/>
</clipPath>
</defs>
</svg>
