<svg width="4170" height="3576" viewBox="0 0 4170 3576" fill="none" xmlns="http://www.w3.org/2000/svg">
<g clip-path="url(#clip0_1084_2501)">
<g clip-path="url(#clip1_1084_2501)">
<path d="M932.354 2409.29C932.354 2409.29 128.775 1544.79 132.226 1531.91C135.676 1519.02 2389 215.188 2397.37 221.23C2405.76 227.271 2583.84 817.173 2583.84 817.173C2583.84 817.173 2597.57 875.557 2627.62 879.942C2657.68 884.326 3354.79 879.899 3364.57 897.005C3374.36 914.11 3376.31 927.834 3391.81 944.603C3407.31 961.377 3584.28 1053.99 3632.28 1077.68C3680.29 1101.39 3791.45 1094.48 3794.03 1105.85C3796.6 1117.23 2907.66 2103.8 2907.66 2103.8L2030.61 3111.19C2030.61 3111.19 2004.68 3140.05 1989.5 3159.73C1977.63 3175.13 1960.53 3200.25 1960.53 3200.25C1960.53 3200.25 1909.19 3273.07 1858.77 3309.61C1809 3345.7 1710.57 3382.51 1710.57 3382.51C1710.57 3382.51 1584.69 3425.64 1564.03 3418.79C1543.39 3411.93 1562.36 3390.06 1502.35 3383.21C1442.34 3376.35 1384.13 3404.2 1368.7 3393.83C1336.72 3372.34 1348.61 3324.32 1328.34 3288.88C1311.88 3260.13 1278.21 3261.47 1262.47 3233.95C1246.72 3206.43 1175.16 3021.14 1175.16 3021.14L1060.63 2662.74C1060.63 2662.74 1029.55 2562.14 1005.59 2518.38C981.625 2474.62 932.354 2409.29 932.354 2409.29Z" fill="url(#paint0_radial_1084_2501)"/>
<path d="M553.836 1628.44C553.836 1628.44 1082.76 2186.59 1088.81 2192.01C1094.86 2197.42 1097.6 2193.83 1098.53 2188.36C1107.1 2138.32 1114.44 1893.82 1093.94 1867.31C1071.21 1837.9 614.371 1565.7 599.968 1561.17C585.565 1556.63 578.877 1558.38 566.972 1565.4C555.337 1572.27 544.827 1580.54 541.879 1593.79C538.538 1608.79 553.836 1628.44 553.836 1628.44Z" fill="url(#paint1_radial_1084_2501)"/>
<path d="M2204 1346.94C2199.28 1312.37 2077.49 640.622 2078.48 625.668C2079.47 610.715 2092.62 607.765 2104.58 605.637C2115.68 603.66 2131.94 599.911 2134.09 609.176C2198.72 887.498 2264.38 1290.77 2269.26 1330.69C2274.14 1370.61 2262.92 1382.5 2240.3 1385.66C2222.02 1388.22 2208.74 1381.51 2204 1346.94Z" fill="url(#paint2_radial_1084_2501)"/>
<path d="M2077.89 1262.36C2074.46 1230.01 1986.07 656.445 1987.66 642.554C1989.25 628.664 1997.45 619.335 2010.05 617.003C2019.49 615.255 2033.61 622.758 2034.87 630.369C2078.65 894.199 2132.15 1250.5 2138.47 1286.87C2144.8 1323.24 2134.25 1326.21 2113.14 1332.14C2095.07 1337.22 2081.32 1294.7 2077.89 1262.36Z" fill="url(#paint3_radial_1084_2501)"/>
<path d="M2335.58 1342.34C2329.35 1307.36 2257.91 921.056 2255.51 899.672C2253.11 878.289 2254.59 877.434 2263.68 876.131C2272.79 874.828 2278.14 894.5 2278.78 899.074C2279.43 903.648 2363.61 1370.68 2363.54 1382.6C2363.46 1394.52 2372.33 1416.9 2360.26 1418.15C2348.18 1419.41 2341.82 1377.33 2335.58 1342.34Z" fill="url(#paint4_radial_1084_2501)"/>
<path d="M2230.71 826.146C2224.62 813.573 2195.89 597.407 2196.25 592.824C2196.62 588.239 2205.59 581.873 2213.93 589.962C2222.28 598.051 2267.73 816.19 2262.7 825.368C2257.65 834.545 2236.79 838.718 2230.71 826.146Z" fill="url(#paint5_radial_1084_2501)"/>
<path d="M2405.82 1399.78C2413.16 1420.13 2429.24 1480.27 2437.41 1489.4C2445.59 1498.53 2460.67 1514.55 2475.24 1509.09C2489.83 1503.62 2701.38 1383.19 2712.89 1377.52C2724.4 1371.85 2714.04 1338.25 2711.8 1332.61C2709.56 1326.98 2652.61 1215.41 2647.5 1206.47C2642.39 1197.55 2548.33 1019.35 2539.08 1004.92C2534.41 997.645 2476.23 903.673 2428.69 822.293C2376.22 746.185 2333.82 696.031 2328.62 692.108C2323.43 688.186 2303.76 691.647 2299.32 694.214C2294.89 696.779 2293.63 701.466 2292.48 708.067C2291.34 714.669 2293.67 747.97 2294.66 758.289C2295.2 764.023 2318.06 936.792 2350.65 1109C2371.7 1247.27 2402.56 1390.73 2405.82 1399.78Z" fill="url(#paint6_radial_1084_2501)"/>
<g clip-path="url(#paint7_diamond_1084_2501_clip_path)" data-figma-skip-parse="true"><g transform="matrix(-0.2125 0.005 -0.00934346 -0.397097 1915.06 2877.33)"><rect x="0" y="0" width="1140.06" height="348.305" fill="url(#paint7_diamond_1084_2501)" opacity="1" shape-rendering="crispEdges"/><rect x="0" y="0" width="1140.06" height="348.305" transform="scale(1 -1)" fill="url(#paint7_diamond_1084_2501)" opacity="1" shape-rendering="crispEdges"/><rect x="0" y="0" width="1140.06" height="348.305" transform="scale(-1 1)" fill="url(#paint7_diamond_1084_2501)" opacity="1" shape-rendering="crispEdges"/><rect x="0" y="0" width="1140.06" height="348.305" transform="scale(-1)" fill="url(#paint7_diamond_1084_2501)" opacity="1" shape-rendering="crispEdges"/></g></g><path d="M2000.44 2978.78C2016.85 2967.43 2037.18 2932.45 2042.13 2932C2045.88 2931.37 2062.92 2915.25 2066.71 2910.19C2070.51 2905.14 2075.33 2880.66 2080.5 2874.57C2085.67 2868.47 2100.92 2860.27 2102.48 2858.01C2104.03 2855.74 2111.15 2840.49 2108.63 2836.91C2106.1 2833.33 2091.89 2838.54 2089.82 2840.09C2087.76 2841.65 2048.05 2874.85 2041.87 2879.51C2035.68 2884.17 2019.08 2888.99 2016.85 2891.78C2014.6 2894.56 2001.62 2895.55 1999.55 2897.11L1717.71 2820L1683.82 2910.19C1683.82 2910.19 1984.03 2990.13 2000.44 2978.78Z" data-figma-gradient-fill="{&#34;type&#34;:&#34;GRADIENT_DIAMOND&#34;,&#34;stops&#34;:[{&#34;color&#34;:{&#34;r&#34;:0.71764707565307617,&#34;g&#34;:0.84705883264541626,&#34;b&#34;:0.95294117927551270,&#34;a&#34;:1.0},&#34;position&#34;:0.35096153616905212},{&#34;color&#34;:{&#34;r&#34;:0.49509984254837036,&#34;g&#34;:0.69875645637512207,&#34;b&#34;:0.86538463830947876,&#34;a&#34;:1.0},&#34;position&#34;:1.0}],&#34;stopsVar&#34;:[{&#34;color&#34;:{&#34;r&#34;:0.71764707565307617,&#34;g&#34;:0.84705883264541626,&#34;b&#34;:0.95294117927551270,&#34;a&#34;:1.0},&#34;position&#34;:0.35096153616905212},{&#34;color&#34;:{&#34;r&#34;:0.49509984254837036,&#34;g&#34;:0.69875645637512207,&#34;b&#34;:0.86538463830947876,&#34;a&#34;:1.0},&#34;position&#34;:1.0}],&#34;transform&#34;:{&#34;m00&#34;:-424.99996948242188,&#34;m01&#34;:-18.686914443969727,&#34;m02&#34;:2136.9001464843750,&#34;m10&#34;:9.9999942779541016,&#34;m11&#34;:-794.19348144531250,&#34;m12&#34;:3269.43066406250},&#34;opacity&#34;:1.0,&#34;blendMode&#34;:&#34;NORMAL&#34;,&#34;visible&#34;:true}"/>
<path d="M348.223 1645.5L953.098 2300.28L348.223 1645.5Z" fill="url(#paint8_radial_1084_2501)"/>
<path d="M348.223 1645.5L953.098 2300.28" stroke="url(#paint9_radial_1084_2501)" stroke-width="24" stroke-linecap="round"/>
<path d="M2754.66 1902.42C2754.66 1902.42 2732.57 1832.16 2722.78 1815.31C2713.01 1798.46 2593.78 1688.05 2593.78 1688.05C2593.78 1688.05 2546.03 1660.35 2518.63 1638.29C2492.05 1616.89 2477.9 1603.56 2455.84 1577.6C2443.73 1563.35 2439.88 1552.95 2426.85 1539.53C2409.26 1521.42 2398 1511.3 2374.9 1500.92C2351.7 1490.48 2336.45 1489.67 2311.07 1487.6C2289.52 1485.84 2277.06 1485.45 2255.73 1488.92C2235.17 1492.27 2223.43 1494.22 2205.7 1505.11C2190.18 1514.64 2186.42 1524.31 2176.69 1539.62C2161.33 1563.76 2157.66 1609.04 2157.66 1609.04" stroke="url(#paint10_radial_1084_2501)" stroke-width="15" stroke-linecap="round"/>
<path d="M2158.48 2720.31C2152.47 2728.73 2140.17 2851.68 2133.13 2868.63L2107.3 2727.16L2171.14 2708.03C2171.14 2708.03 2164.48 2711.89 2158.48 2720.31Z" fill="#87B9E2"/>
<path d="M1216.96 2679.14L1270.95 2792.42L1312.64 2865.31C1312.64 2865.31 1330.29 2892.71 1338.58 2903.75C1346.87 2914.8 1375.52 2940.79 1375.52 2940.79C1375.52 2940.79 1421.79 2987.27 1426.67 2992.36C1431.55 2997.46 1499.02 3053.46 1509.61 3058.22C1520.2 3062.97 1529.21 3066.68 1529.21 3066.68M1529.21 3066.68C1529.21 3066.68 1550.62 3080.02 1568.4 3083.59C1586.19 3087.15 1610.32 3088.05 1610.32 3088.05M1529.21 3066.68C1516.13 3006.15 1555.49 2991.42 1576.79 2991.62M1610.32 3088.05L1655.73 3093.45C1655.73 3093.45 1880.57 3102.92 1904.68 3096.9C1928.78 3090.86 1966.56 3057.13 1966.56 3057.13C1966.56 3057.13 2028.7 3002.37 2043.05 2986.14C2057.38 2969.93 2101.23 2915.85 2101.23 2915.85L2133.25 2868.62M1610.32 3088.05C1643.85 3042.62 1622.34 3009.53 1607.4 2998.66M2133.25 2868.62C2140.27 2851.67 2152.59 2728.73 2158.6 2720.31C2164.6 2711.89 2171.26 2708.03 2171.26 2708.03M2133.25 2868.62L2107.42 2727.16L2171.26 2708.03M2171.26 2708.03L2307.96 2640.81C2307.96 2640.81 2332.98 2624.36 2343.42 2613.37C2353.86 2602.37 2387.1 2536.62 2387.1 2536.62L2424.8 2449.46L2455.39 2384.25C2455.39 2384.25 2461.06 2370.08 2469.91 2358.02C2478.76 2345.98 2558.22 2238.86 2558.22 2238.86" stroke="url(#paint11_linear_1084_2501)" stroke-width="15" stroke-linecap="round" stroke-linejoin="round"/>
<path d="M1798.84 674.385C1785.19 676.339 1638.73 733.369 1625.31 739.154C1611.9 744.938 1519.79 797.238 1510.18 802.799C1500.58 808.36 1396.88 871.334 1396.88 871.334C1396.88 871.334 1215.08 980.039 1069.62 1071.59C973.829 1131.86 894.86 1186.58 890.128 1191.28C878.21 1203.13 868.845 1219.44 868.865 1226.35C868.886 1233.27 875.557 1269.01 876.519 1272.41C877.483 1275.81 893.827 1326.74 899.135 1332.58C904.443 1338.42 920.325 1342.1 924.985 1343.36C929.643 1344.62 945.099 1347.56 951.774 1350.63C958.449 1353.69 964.071 1358.36 969.804 1364.94C975.538 1371.53 970.587 1378.35 974.73 1383.87C978.873 1389.39 1177.09 1440.02 1177.09 1440.02L1356.57 1490.59L1498.03 1524.56L1637.58 1558.64C1637.58 1558.64 1657.68 1555.92 1661.17 1556.88C1664.67 1557.82 1759.86 1584.9 1766 1585.31C1772.14 1585.72 1801.29 1605.56 1804.15 1608.86C1807.03 1612.14 1834.78 1624.71 1836.91 1628.42C1839.03 1632.14 1850.15 1632.64 1855.75 1630.39C1861.35 1628.13 1865.15 1633.36 1872.15 1635.86C1885.15 1641.36 1885.09 1643.65 1888.15 1643.86C1891.22 1644.07 1900.87 1641.64 1902.15 1643.86C1912.15 1645.36 1909.15 1644.86 1915.58 1647.25C1918.14 1651.7 1967.08 1671.89 1969.83 1673.27C1972.59 1674.64 2000.21 1676.48 2004.64 1673.92C2009.08 1671.34 2017.18 1659.72 2017.82 1657.39C2018.44 1655.04 2044.69 1587.39 2044.69 1587.39C2044.69 1587.39 2055.98 1545.21 2055.22 1538.73C2054.46 1532.24 2034.79 1503.03 2034.79 1503.03L2008.77 1469.58L1981.91 1441.56L1933.22 1399.46C1933.22 1399.46 1909.55 1373.55 1906.14 1367.6C1902.74 1361.66 1892.08 1336.15 1890.47 1328.17C1888.85 1320.19 1895.7 1241 1895.7 1241L1903.44 1039.52L1896.53 927.702C1896.53 927.702 1887 888.673 1883.9 881.552C1880.81 874.43 1866.17 859.149 1866.17 859.149L1843.64 826.648C1843.64 826.648 1845.13 792.124 1840.65 780.856C1836.17 769.589 1844.16 756.221 1840.65 748.356C1837.13 740.491 1842.88 729.491 1840.65 723.856C1838.41 718.223 1836.01 711.51 1840.65 705.856C1845.28 700.203 1833.87 678.861 1833.87 678.861C1833.87 678.861 1838.31 676.295 1834.7 673.432C1831.1 670.569 1812.48 672.431 1798.84 674.385Z" fill="url(#paint12_radial_1084_2501)"/>
<path d="M1996.91 2332.77C2002.97 2332.37 2159.02 2413.19 2167.7 2411.14C2176.37 2409.09 2418.74 2096.61 2418.74 2096.61C2424.74 2088.18 2447.56 2040.34 2451.24 2031.28C2454.9 2022.22 2460.9 1974.21 2461.3 1968.04C2461.7 1961.87 2460.6 1910.05 2458.56 1901.33C2456.51 1892.6 2431.86 1856.38 2424.85 1847.58C2417.84 1838.76 2374.5 1816.32 2366.65 1812.94C2358.82 1809.56 2175.5 1752.3 2175.5 1752.3L2151.02 1738.73L2124.32 1726.47C2124.32 1726.47 2076.67 1715.43 2074.45 1716.71C2072.25 1718 2058.13 1738.04 2054 1739.44C2049.88 1740.83 2048.82 1742.43 2039.09 1739.16C2029.34 1735.89 1984.18 1708.57 1975.61 1705.61C1967.03 1702.65 1956.66 1701.73 1947.67 1704.95C1938.69 1708.16 1938.8 1710.08 1928.22 1712.24C1917.65 1714.39 1732.41 1650.33 1723.52 1648.54C1714.63 1646.75 1514.17 1590.5 1503.26 1586.91C1492.36 1583.32 1415.19 1570.56 1415.19 1570.56L1204.47 1515.29C1204.47 1515.29 1027.54 1469.17 1022.88 1467.92C1018.22 1466.65 880.33 1421.71 880.33 1421.71L721.069 1377.25C721.069 1377.25 678.195 1369.39 668.563 1368.04C658.931 1366.67 616.93 1367.22 609.314 1367.66C601.698 1368.12 555.91 1375.8 544.082 1382.65C532.253 1389.49 528.892 1397.38 524.993 1402.6C521.095 1407.83 505.007 1439.9 508.32 1450.86C511.634 1461.81 541.536 1483.11 547.471 1486.61C553.407 1490.11 619.124 1529.28 619.124 1529.28C619.124 1529.28 1130.03 1837.52 1140.09 1839.61C1150.15 1841.72 1165.16 1836.99 1171.21 1842.4C1177.25 1847.82 1173.89 1855.69 1176.14 1861.33C1178.37 1866.96 1185.67 1867.69 1188.65 1872.9C1191.63 1878.1 1313.33 2195.73 1313.33 2195.73C1313.33 2195.73 1339.28 2273.76 1343.23 2282.38C1347.16 2290.99 1361 2318.61 1366.62 2323.28C1372.25 2327.95 1434.02 2358.53 1434.02 2358.53C1434.02 2358.53 1617.64 2447.29 1627.08 2451.74C1636.51 2456.17 1742.23 2499.93 1756.21 2503.73C1770.18 2507.51 1786.81 2510.77 1802.89 2511.36C1818.98 2511.96 1868.13 2496.39 1876.8 2494.34C1885.46 2492.29 1908.32 2490.95 1914.56 2493.27C1920.81 2495.6 1923.25 2498.14 1928.98 2504.72C1934.72 2511.3 1948.33 2535.1 1953.65 2540.94C1958.96 2546.78 1975.06 2554.3 1989.03 2558.08C2003.02 2561.87 2028.5 2559.99 2048.29 2558.44C2068.06 2556.91 2139.23 2545.42 2158.61 2550.05C2177.99 2554.67 2195.79 2565.15 2209 2562.46C2222.22 2559.76 2248.23 2553.63 2256.47 2550.83C2264.72 2548.04 2293.23 2532.53 2297.77 2524.96C2302.29 2517.39 2309.55 2504.28 2307.2 2496.73C2304.84 2489.18 2192.26 2452.37 2180.39 2445.37C2168.52 2438.38 1996.97 2345.49 1993.12 2339.91C1989.27 2334.34 1990.84 2333.17 1996.91 2332.77Z" fill="url(#paint13_radial_1084_2501)"/>
<path d="M1199.62 2526.93L1274.09 2572.26" stroke="url(#paint14_radial_1084_2501)" stroke-width="18" stroke-linecap="round"/>
<path d="M3296.15 1239.47C3315.75 1228.13 3322.5 1202.95 3311.22 1183.24C3299.94 1163.52 3274.9 1156.73 3255.31 1168.07C3235.71 1179.41 3228.97 1204.59 3240.25 1224.3C3251.53 1244.02 3276.56 1250.81 3296.15 1239.47Z" fill="url(#paint15_radial_1084_2501)"/>
<path d="M3172.91 1620.29C3178.53 1629.89 3186.84 1632.96 3186.53 1644.09C3186.23 1654.6 3179.99 1658.41 3172.1 1665.31C3165.54 1671.04 3149.72 1681.22 3138.18 1679.98C3126.65 1678.74 3092.7 1614.24 3092.7 1614.24C3092.7 1614.24 3082.97 1596.86 3072.42 1594.29C3061.43 1591.61 3054.84 1594.93 3046.96 1603.09C3037.16 1613.22 3037.33 1624.69 3040.61 1638.43C3043.33 1649.84 3049.07 1657.29 3055.5 1664.46C3062.79 1672.61 3068.54 1671.77 3074.5 1682.19C3080.45 1692.6 3085.48 1778.78 3084.88 1788.04C3084.27 1797.3 3110.14 1815 3109.85 1823.09C3109.56 1831.17 3089.14 1867.73 3077.61 1866.49C3066.08 1865.25 3020.32 1814.51 3014.8 1811.75C3009.29 1809.01 2999.98 1806.5 2992.38 1813.84C2984.77 1821.19 2991.45 1889.62 2978.57 1898.06C2965.68 1906.5 2947.14 1896.45 2934.23 1897.97C2921.34 1899.5 2916.7 1905.15 2907.99 1893.36C2899.28 1881.58 2910.06 1870.89 2908.84 1862.19C2907.86 1855.22 2901.81 1846.45 2901.81 1846.45C2898.31 1840.26 2872.52 1868.71 2855.32 1868.4C2842.68 1868.17 2829.23 1846.87 2829.23 1846.87C2829.23 1846.87 2815.33 1831.16 2815.81 1819.98C2816.33 1808.42 2823.3 1804.48 2832.47 1797.49C2845.92 1787.22 2859.53 1789.74 2876.44 1784.91C2893.35 1780.07 2910.07 1769.5 2915.73 1764.15C2921.4 1758.8 2922.03 1747.64 2922.03 1747.64C2922.03 1747.64 2922.59 1703.97 2914.51 1677.74C2910.83 1665.79 2902.8 1653.83 2903.21 1647.66C2903.61 1641.48 2904.13 1604.56 2911.52 1600.27C2918.92 1596 2929.88 1601.13 2939.12 1595.2C2947.3 1589.94 2948.3 1582.49 2957.27 1578.76C2965.46 1575.35 2975.14 1577.33 2975.14 1577.33C2975.14 1577.33 2986.44 1581.1 2992.5 1580.15C3001.86 1578.67 3006.53 1572.82 3011.08 1564.45C3018.76 1550.31 3005.25 1538.66 3004.81 1522.55C3004.46 1509.54 3002.31 1499.24 3007.99 1491.99C3013.69 1484.74 3033.65 1473.19 3041.37 1474.66C3049.1 1476.12 3058.36 1478 3062.16 1490.35C3067.85 1508.85 3034.48 1518.37 3039.66 1537.02C3041.46 1543.48 3044.25 1550.21 3051.55 1550.93C3058.86 1551.66 3129.95 1552.09 3129.95 1552.09C3129.95 1552.09 3136.41 1551.33 3148.51 1562.14C3160.6 1572.97 3161.31 1600.47 3172.91 1620.29Z" stroke="#D4A140" stroke-width="10" stroke-linecap="round" stroke-linejoin="round"/>
<path d="M2218.11 2440.45C2212.95 2443.44 2169.18 2420.26 2166.31 2416.97C2163.44 2413.68 2351.57 2180.09 2368.44 2161.42C2385.31 2142.75 2423.44 2099.99 2441.96 2052.56C2455.85 2016.98 2461.72 1994.74 2460.81 1956.51C2460.21 1931.5 2460.67 1916.05 2450.24 1893.34C2438.39 1867.49 2424.39 1856.21 2401.62 1839.31C2370.39 1816.12 2325.78 1809.94 2308.62 1804.03C2291.46 1798.11 2187.57 1766.17 2180.05 1761.6C2172.52 1757.05 2144.91 1741.02 2121.03 1732.41C2103.7 1726.16 2076.36 1726.58 2074.23 1722.86C2072.11 1719.13 2086.49 1684.08 2092.29 1678.75C2098.09 1673.41 2448.2 1747.02 2466.12 1759.42C2484.04 1771.82 2493.66 1781.45 2508.89 1798.03C2527.53 1818.33 2538.05 1830.48 2550.42 1855.16C2562.39 1879.06 2567.15 1893.98 2571.05 1920.45C2575.55 1950.97 2575.12 1969.39 2568.01 1999.42C2557.89 2042.23 2512.98 2097.58 2512.98 2097.58C2512.98 2097.58 2223.29 2437.45 2218.11 2440.45Z" fill="url(#paint16_radial_1084_2501)"/>
<path d="M2464.96 1759.1C2466.24 1761.33 2400.34 1837.08 2398.02 1836.45C2395.68 1835.81 2393.5 1833.55 2390.49 1831.89C2387.33 1830.14 2385.48 1829.3 2382.22 1827.76C2375.77 1824.71 2372 1823.36 2365.39 1820.67C2361.42 1819.08 2359.26 1818.04 2355.22 1816.67C2349.86 1814.84 2346.69 1814.36 2341.23 1812.88L2324.93 1808.45C2319.92 1807.09 2317.11 1806.39 2312.12 1804.97C2300.32 1801.63 2282.14 1795.59 2282.14 1795.59L2258 1787.78L2222.94 1776.39L2198.8 1768.58C2198.8 1768.58 2184.39 1764.04 2180.47 1762.35C2176.56 1760.66 2175.91 1759.55 2172.94 1757.8C2163.54 1752.23 2157.49 1749.58 2147.73 1744.67C2138.54 1740.07 2133.52 1737.05 2123.79 1733.78C2113.94 1730.49 2108.85 1729.02 2098.59 1727.58C2088.95 1726.22 2074.77 1725.51 2074.23 1722.86C2073.7 1720.2 2074.09 1719.25 2074.64 1716.68C2075.97 1710.42 2077.81 1706.53 2080.2 1700.59C2081.72 1696.8 2082.78 1694.77 2084.61 1691.11C2086.03 1688.29 2086.69 1686.62 2088.4 1683.98C2089.78 1681.83 2090.82 1679.61 2092.29 1678.75C2093.77 1677.9 2094.94 1678.2 2099.17 1678.73C2103.41 1679.25 2105.74 1679.89 2109.96 1680.4C2112.81 1680.74 2122.6 1682.84 2125.43 1683.33C2125.43 1683.33 2146.15 1686.94 2159.4 1689.41C2165.45 1690.54 2168.82 1691.19 2174.86 1692.35C2195.73 1696.36 2207.37 1698.97 2228.22 1703.05C2240.74 1705.5 2247.79 1706.73 2260.29 1709.23C2281.81 1713.55 2293.83 1716.19 2315.24 1721C2315.24 1721 2346.41 1728.32 2366.38 1732.99C2392.09 1739 2406.91 1740.85 2432.23 1748.33C2445.13 1752.16 2463.68 1756.87 2464.96 1759.1Z" fill="url(#paint17_radial_1084_2501)"/>
<path d="M2505.64 2137.99C2505.64 2137.99 2522.84 2120.41 2533.02 2108.36C2543.75 2095.68 2558.98 2074.63 2558.98 2074.63M2558.98 2074.63C2558.98 2074.63 2570.37 2082.45 2577.65 2087.46M2558.98 2074.63C2587.47 2026.75 2593.54 2000.12 2597.73 1952.75M2597.73 1952.75L2700.76 1963.04M2597.73 1952.75C2594.08 1900.8 2586.89 1875.25 2566.24 1835.08M2566.24 1835.08L2584.66 1824.42M2566.24 1835.08C2543.42 1796.78 2529.58 1782.49 2504.09 1762.72" stroke="url(#paint18_radial_1084_2501)" stroke-width="20" stroke-linecap="round" stroke-linejoin="round"/>
<path d="M2719.12 1677.9L2692.94 1694.04L2739.33 1770.11L2765.51 1753.97L2719.12 1677.9Z" fill="url(#paint19_radial_1084_2501)"/>
<path d="M2763.14 1654.35L2735.53 1671.41L2766.8 1722.59L2794.41 1705.52L2763.14 1654.35Z" fill="url(#paint20_radial_1084_2501)"/>
<path d="M2707.64 1851.03L2675.97 1858.16L2688.86 1916.73L2720.52 1909.6L2707.64 1851.03Z" fill="url(#paint21_radial_1084_2501)"/>
<path d="M1302.29 2649L1288 2691.5L1359.87 2716.08L1374.17 2673.58L1302.29 2649Z" fill="url(#paint22_radial_1084_2501)"/>
<path d="M2815.94 1619.73L2775.12 1644.67L2821.18 1720.94L2862.01 1696L2815.94 1619.73Z" fill="url(#paint23_radial_1084_2501)"/>
<path d="M1013.89 2201.79L998.273 2215.78L1038.92 2257.59L1054.11 2242.86L1013.89 2201.79Z" fill="url(#paint24_radial_1084_2501)"/>
<path d="M1095.39 2315.38L1090.12 2322.46L1085.05 2328.74L1078.29 2319.25L1060.32 2321.61L1055.31 2324.5L1063.84 2302.15L1057.37 2293.16L1061.43 2287.46L1077.89 2281.29L1096.66 2261.71L1099.89 2263.87L1100.24 2283.1L1114.82 2298.11L1109.91 2306.99L1095.39 2315.38Z" stroke="url(#paint25_radial_1084_2501)" stroke-width="12" stroke-linejoin="round"/>
<path d="M1094.83 2341.18C1099.53 2338.46 1101.14 2332.42 1098.44 2327.7C1095.74 2322.97 1089.73 2321.34 1085.04 2324.06C1080.34 2326.78 1078.72 2332.82 1081.42 2337.54C1084.13 2342.27 1090.13 2343.9 1094.83 2341.18Z" fill="url(#paint26_radial_1084_2501)"/>
<path d="M1053.28 2338.42C1057.98 2335.7 1059.6 2329.66 1056.89 2324.93C1054.19 2320.21 1048.19 2318.58 1043.49 2321.3C1038.79 2324.02 1037.17 2330.05 1039.88 2334.78C1042.58 2339.51 1048.58 2341.13 1053.28 2338.42Z" fill="url(#paint27_radial_1084_2501)"/>
<path d="M1060.6 2295.31C1065.29 2292.59 1066.91 2286.56 1064.21 2281.83C1061.5 2277.1 1055.5 2275.47 1050.8 2278.19C1046.1 2280.91 1044.49 2286.95 1047.19 2291.67C1049.9 2296.4 1055.9 2298.03 1060.6 2295.31Z" fill="url(#paint28_radial_1084_2501)"/>
<path d="M1105.33 2264.07C1110.03 2261.35 1111.65 2255.31 1108.95 2250.59C1106.24 2245.86 1100.24 2244.23 1095.54 2246.95C1090.84 2249.67 1089.23 2255.7 1091.93 2260.43C1094.63 2265.16 1100.64 2266.79 1105.33 2264.07Z" fill="url(#paint29_radial_1084_2501)"/>
<path d="M1123.25 2314.01C1127.95 2311.29 1129.56 2305.25 1126.86 2300.52C1124.15 2295.8 1118.15 2294.17 1113.45 2296.89C1108.76 2299.61 1107.14 2305.64 1109.84 2310.37C1112.55 2315.1 1118.55 2316.72 1123.25 2314.01Z" fill="url(#paint30_radial_1084_2501)"/>
<path d="M2226.26 1737.22C2226.37 1736.53 2226.18 1735.89 2225.7 1735.36C2225.22 1734.83 2224.57 1734.45 2223.73 1734.22C2223.12 1734.06 2222.55 1734 2222.06 1734.09C2221.55 1734.18 2221.11 1734.34 2220.77 1734.62C2220.41 1734.9 2220.2 1735.27 2220.09 1735.72C2219.97 1736.07 2219.98 1736.41 2220.09 1736.73C2220.19 1737.05 2220.37 1737.32 2220.6 1737.58C2220.83 1737.83 2221.08 1738.04 2221.35 1738.23C2221.63 1738.42 2221.9 1738.59 2222.13 1738.73L2223.42 1739.49C2223.77 1739.68 2224.12 1739.92 2224.52 1740.2C2224.92 1740.49 2225.3 1740.83 2225.63 1741.24C2225.96 1741.63 2226.19 1742.09 2226.35 1742.6C2226.48 1743.12 2226.48 1743.71 2226.29 1744.36C2226.09 1745.11 2225.72 1745.73 2225.16 1746.24C2224.63 1746.72 2223.93 1747.06 2223.1 1747.2C2222.27 1747.37 2221.31 1747.3 2220.25 1747.03C2219.26 1746.76 2218.44 1746.36 2217.81 1745.85C2217.18 1745.33 2216.73 1744.75 2216.47 1744.06C2216.2 1743.38 2216.16 1742.64 2216.31 1741.87L2218.02 1742.34C2217.93 1742.86 2217.99 1743.36 2218.2 1743.77C2218.43 1744.21 2218.76 1744.55 2219.19 1744.86C2219.61 1745.14 2220.11 1745.35 2220.65 1745.51C2221.29 1745.67 2221.88 1745.73 2222.45 1745.67C2223.01 1745.58 2223.5 1745.39 2223.88 1745.11C2224.29 1744.8 2224.55 1744.4 2224.69 1743.88C2224.82 1743.43 2224.79 1743.01 2224.61 1742.67C2224.43 1742.31 2224.15 1741.97 2223.77 1741.68C2223.42 1741.39 2223 1741.11 2222.55 1740.85L2220.98 1739.9C2219.98 1739.3 2219.25 1738.63 2218.77 1737.88C2218.31 1737.12 2218.19 1736.29 2218.43 1735.37C2218.64 1734.57 2219.04 1733.97 2219.62 1733.48C2220.17 1733.03 2220.87 1732.71 2221.66 1732.59C2222.46 1732.45 2223.3 1732.5 2224.19 1732.75C2225.08 1732.98 2225.82 1733.35 2226.43 1733.86C2227.03 1734.36 2227.46 1734.94 2227.72 1735.6C2227.98 1736.27 2228.03 1736.96 2227.87 1737.65L2226.26 1737.22ZM2226.8 1752.69L2230.59 1738.4L2232.12 1738.8L2231.7 1740.45L2231.87 1740.52C2232.04 1740.36 2232.28 1740.16 2232.55 1739.95C2232.83 1739.73 2233.2 1739.54 2233.66 1739.43C2234.1 1739.32 2234.67 1739.33 2235.36 1739.51C2236.22 1739.76 2236.92 1740.19 2237.48 1740.8C2238.03 1741.42 2238.37 1742.18 2238.54 1743.09C2238.71 1743.98 2238.64 1744.99 2238.35 1746.08C2238.05 1747.18 2237.61 1748.08 2237.01 1748.78C2236.44 1749.49 2235.77 1749.98 2234.99 1750.24C2234.21 1750.51 2233.37 1750.53 2232.51 1750.28C2231.87 1750.12 2231.34 1749.86 2231.02 1749.53C2230.66 1749.19 2230.43 1748.85 2230.28 1748.51C2230.15 1748.17 2230.04 1747.9 2229.99 1747.68L2229.84 1747.63L2228.38 1753.12L2226.8 1752.69ZM2230.78 1744.02C2230.58 1744.8 2230.5 1745.51 2230.56 1746.18C2230.63 1746.84 2230.84 1747.41 2231.2 1747.87C2231.55 1748.3 2232.05 1748.64 2232.69 1748.79C2233.36 1748.97 2233.95 1748.96 2234.48 1748.72C2235.04 1748.49 2235.5 1748.08 2235.88 1747.55C2236.28 1747 2236.56 1746.38 2236.76 1745.63C2236.97 1744.88 2237.02 1744.19 2236.96 1743.55C2236.89 1742.91 2236.68 1742.35 2236.33 1741.89C2235.97 1741.43 2235.45 1741.09 2234.78 1740.91C2234.14 1740.73 2233.55 1740.75 2233.01 1740.96C2232.48 1741.17 2232.04 1741.55 2231.66 1742.08C2231.28 1742.58 2230.98 1743.23 2230.78 1744.02ZM2243.53 1753.27C2242.62 1752.99 2241.85 1752.57 2241.27 1751.91C2240.69 1751.29 2240.3 1750.51 2240.1 1749.6C2239.93 1748.69 2239.98 1747.7 2240.27 1746.63C2240.57 1745.53 2241.01 1744.66 2241.61 1743.95C2242.23 1743.25 2242.95 1742.76 2243.76 1742.49C2244.59 1742.25 2245.47 1742.25 2246.41 1742.5C2247.32 1742.75 2248.1 1743.2 2248.68 1743.83C2249.26 1744.45 2249.64 1745.23 2249.81 1746.14C2250.01 1747.05 2249.94 1748.07 2249.67 1749.14C2249.38 1750.23 2248.93 1751.11 2248.31 1751.81C2247.71 1752.5 2246.99 1752.98 2246.19 1753.25C2245.36 1753.49 2244.47 1753.51 2243.53 1753.27ZM2243.92 1751.82C2244.63 1752 2245.27 1751.99 2245.83 1751.73C2246.39 1751.49 2246.84 1751.11 2247.22 1750.58C2247.6 1750.03 2247.88 1749.4 2248.06 1748.71C2248.24 1748.04 2248.32 1747.34 2248.26 1746.68C2248.19 1746.04 2247.98 1745.45 2247.62 1744.96C2247.27 1744.45 2246.72 1744.12 2246.03 1743.92C2245.31 1743.74 2244.67 1743.78 2244.11 1744.01C2243.55 1744.25 2243.1 1744.66 2242.72 1745.19C2242.34 1745.74 2242.06 1746.36 2241.86 1747.06C2241.68 1747.76 2241.62 1748.42 2241.69 1749.09C2241.75 1749.73 2241.96 1750.32 2242.32 1750.8C2242.67 1751.29 2243.22 1751.62 2243.92 1751.82ZM2250.72 1754.94L2253.48 1744.55L2255.02 1744.95L2254.59 1746.52L2254.71 1746.57C2255.02 1746.09 2255.48 1745.76 2256.06 1745.57C2256.65 1745.38 2257.24 1745.37 2257.85 1745.55C2257.98 1745.57 2258.13 1745.62 2258.3 1745.66C2258.47 1745.73 2258.6 1745.75 2258.7 1745.8L2258.27 1747.42C2258.22 1747.39 2258.1 1747.35 2257.9 1747.25C2257.72 1747.18 2257.52 1747.11 2257.33 1747.04C2256.81 1746.91 2256.34 1746.9 2255.88 1747.01C2255.44 1747.12 2255.05 1747.32 2254.71 1747.63C2254.4 1747.93 2254.19 1748.31 2254.05 1748.78L2252.3 1755.37L2250.72 1754.94ZM2265.7 1747.82L2265.34 1749.17L2259.97 1747.74L2260.33 1746.38L2265.7 1747.82ZM2262.54 1744.3L2264.14 1744.73L2261.52 1754.65C2261.38 1755.12 2261.37 1755.46 2261.42 1755.74C2261.5 1755.98 2261.63 1756.17 2261.83 1756.32C2262.03 1756.44 2262.23 1756.53 2262.48 1756.6C2262.65 1756.64 2262.8 1756.66 2262.9 1756.69C2263.02 1756.68 2263.12 1756.71 2263.19 1756.7L2263.13 1758.24C2263.01 1758.24 2262.86 1758.24 2262.64 1758.22C2262.44 1758.23 2262.2 1758.19 2261.9 1758.09C2261.45 1757.98 2261.03 1757.77 2260.66 1757.46C2260.28 1757.15 2260 1756.76 2259.82 1756.27C2259.66 1755.8 2259.64 1755.26 2259.8 1754.66L2262.54 1744.3ZM2274.61 1752.71L2273.06 1752.73C2273.05 1752.48 2272.97 1752.21 2272.87 1751.94C2272.74 1751.65 2272.56 1751.41 2272.31 1751.17C2272.06 1750.95 2271.69 1750.76 2271.24 1750.65C2270.6 1750.47 2270.03 1750.48 2269.52 1750.67C2269.04 1750.83 2268.72 1751.16 2268.61 1751.6C2268.5 1752 2268.56 1752.35 2268.79 1752.66C2269.01 1752.95 2269.42 1753.26 2269.99 1753.6L2271.43 1754.37C2272.28 1754.87 2272.88 1755.4 2273.22 1755.98C2273.55 1756.57 2273.61 1757.21 2273.41 1757.93C2273.25 1758.53 2272.95 1759.03 2272.49 1759.41C2272.03 1759.79 2271.45 1760.03 2270.77 1760.15C2270.1 1760.24 2269.37 1760.18 2268.55 1759.98C2267.49 1759.68 2266.69 1759.23 2266.11 1758.58C2265.55 1757.93 2265.29 1757.15 2265.34 1756.21L2266.94 1756.24C2266.95 1756.83 2267.11 1757.32 2267.44 1757.71C2267.77 1758.1 2268.24 1758.38 2268.91 1758.56C2269.65 1758.77 2270.26 1758.75 2270.8 1758.56C2271.31 1758.35 2271.65 1758.02 2271.76 1757.58C2271.85 1757.23 2271.81 1756.88 2271.61 1756.57C2271.43 1756.25 2271.1 1755.96 2270.61 1755.7L2268.99 1754.83C2268.09 1754.36 2267.49 1753.83 2267.18 1753.22C2266.87 1752.64 2266.81 1751.97 2267.01 1751.25C2267.17 1750.65 2267.45 1750.2 2267.91 1749.82C2268.36 1749.46 2268.9 1749.23 2269.53 1749.14C2270.19 1749.02 2270.86 1749.08 2271.6 1749.26C2272.61 1749.53 2273.36 1749.98 2273.82 1750.59C2274.3 1751.19 2274.56 1751.9 2274.61 1752.71ZM2282.31 1752.28L2281.95 1753.64L2276.58 1752.2L2276.94 1750.85L2282.31 1752.28ZM2279.18 1748.77L2280.76 1749.2L2278.13 1759.12C2278.02 1759.57 2277.98 1759.92 2278.06 1760.19C2278.14 1760.46 2278.27 1760.65 2278.44 1760.77C2278.64 1760.91 2278.84 1761.01 2279.09 1761.05C2279.26 1761.12 2279.41 1761.14 2279.53 1761.16C2279.63 1761.16 2279.73 1761.16 2279.8 1761.18L2279.74 1762.69C2279.62 1762.72 2279.47 1762.7 2279.28 1762.7C2279.06 1762.68 2278.81 1762.64 2278.51 1762.57C2278.07 1762.43 2277.64 1762.22 2277.27 1761.91C2276.89 1761.6 2276.61 1761.21 2276.45 1760.75C2276.27 1760.28 2276.26 1759.74 2276.41 1759.12L2279.18 1748.77ZM2281.94 1763.35L2284.71 1752.93L2286.24 1753.34L2285.81 1754.91L2285.93 1754.95C2286.24 1754.48 2286.7 1754.14 2287.28 1753.96C2287.87 1753.77 2288.46 1753.78 2289.08 1753.94C2289.2 1753.96 2289.35 1754 2289.52 1754.05C2289.7 1754.12 2289.82 1754.16 2289.92 1754.19L2289.49 1755.8C2289.44 1755.78 2289.32 1755.73 2289.12 1755.66C2288.95 1755.57 2288.75 1755.5 2288.55 1755.43C2288.03 1755.3 2287.56 1755.28 2287.1 1755.39C2286.66 1755.5 2286.27 1755.71 2285.94 1756.01C2285.62 1756.32 2285.41 1756.72 2285.28 1757.19L2283.53 1763.76L2281.94 1763.35ZM2291.99 1766.29C2291.32 1766.13 2290.77 1765.85 2290.3 1765.44C2289.82 1765.06 2289.49 1764.57 2289.3 1764.01C2289.12 1763.44 2289.13 1762.83 2289.31 1762.15C2289.46 1761.56 2289.7 1761.11 2290.03 1760.8C2290.37 1760.47 2290.76 1760.27 2291.2 1760.16C2291.66 1760.07 2292.13 1760.01 2292.62 1760.05C2293.13 1760.06 2293.63 1760.1 2294.12 1760.16C2294.78 1760.26 2295.3 1760.33 2295.7 1760.39C2296.11 1760.45 2296.41 1760.47 2296.63 1760.39C2296.85 1760.34 2296.97 1760.19 2297.06 1759.94L2297.06 1759.89C2297.24 1759.22 2297.2 1758.65 2296.92 1758.19C2296.66 1757.7 2296.16 1757.37 2295.44 1757.19C2294.68 1756.98 2294.04 1756.97 2293.53 1757.21C2292.99 1757.42 2292.61 1757.7 2292.32 1758.03L2290.97 1757.07C2291.4 1756.52 2291.88 1756.11 2292.44 1755.9C2292.98 1755.67 2293.54 1755.55 2294.1 1755.54C2294.69 1755.55 2295.23 1755.61 2295.75 1755.74C2296.1 1755.84 2296.47 1756 2296.87 1756.19C2297.29 1756.37 2297.67 1756.66 2297.99 1757C2298.35 1757.36 2298.58 1757.82 2298.74 1758.39C2298.88 1758.95 2298.82 1759.65 2298.62 1760.47L2296.78 1767.33L2295.19 1766.9L2295.58 1765.48L2295.5 1765.48C2295.34 1765.66 2295.07 1765.86 2294.76 1766.04C2294.44 1766.25 2294.05 1766.36 2293.59 1766.44C2293.12 1766.51 2292.58 1766.47 2291.99 1766.29ZM2292.62 1764.94C2293.23 1765.09 2293.8 1765.11 2294.29 1764.99C2294.8 1764.86 2295.21 1764.63 2295.52 1764.27C2295.86 1763.94 2296.09 1763.57 2296.21 1763.14L2296.59 1761.68C2296.49 1761.73 2296.32 1761.76 2296.07 1761.76C2295.85 1761.77 2295.56 1761.78 2295.26 1761.73C2294.94 1761.69 2294.65 1761.68 2294.38 1761.63C2294.08 1761.59 2293.86 1761.55 2293.69 1761.53C2293.24 1761.46 2292.85 1761.45 2292.46 1761.48C2292.06 1761.49 2291.72 1761.6 2291.46 1761.78C2291.17 1761.96 2290.98 1762.26 2290.87 1762.66C2290.71 1763.21 2290.82 1763.7 2291.15 1764.08C2291.48 1764.47 2291.97 1764.76 2292.62 1764.94ZM2302.94 1762.28L2301.28 1768.52L2299.69 1768.12L2302.46 1757.7L2303.99 1758.11L2303.56 1759.75L2303.69 1759.77C2304.07 1759.32 2304.55 1758.98 2305.13 1758.8C2305.72 1758.61 2306.41 1758.62 2307.17 1758.82C2307.89 1759.02 2308.46 1759.33 2308.92 1759.76C2309.34 1760.17 2309.65 1760.73 2309.79 1761.37C2309.93 1762.04 2309.88 1762.8 2309.65 1763.7L2307.88 1770.31L2306.29 1769.88L2308.02 1763.37C2308.25 1762.57 2308.21 1761.86 2307.9 1761.3C2307.59 1760.71 2307.09 1760.33 2306.35 1760.15C2305.83 1760.01 2305.36 1760 2304.9 1760.11C2304.43 1760.22 2304.05 1760.45 2303.69 1760.83C2303.35 1761.19 2303.09 1761.66 2302.94 1762.28ZM2314.63 1772.37C2313.79 1772.12 2313.07 1771.71 2312.54 1771.09C2311.98 1770.46 2311.64 1769.7 2311.47 1768.79C2311.33 1767.88 2311.38 1766.89 2311.67 1765.8C2311.96 1764.7 2312.41 1763.8 2313 1763.1C2313.57 1762.39 2314.27 1761.9 2315.05 1761.64C2315.83 1761.37 2316.64 1761.37 2317.53 1761.6C2318.2 1761.78 2318.7 1762.04 2319.02 1762.38C2319.38 1762.69 2319.61 1763.03 2319.74 1763.37C2319.87 1763.72 2319.97 1763.98 2320.05 1764.2L2320.18 1764.23L2321.55 1759.1L2323.13 1759.53L2319.45 1773.41L2317.91 1773L2318.34 1771.41L2318.14 1771.37C2317.98 1771.52 2317.73 1771.7 2317.44 1771.93C2317.16 1772.16 2316.79 1772.34 2316.33 1772.45C2315.86 1772.56 2315.3 1772.55 2314.63 1772.37ZM2315.24 1770.97C2315.88 1771.15 2316.47 1771.14 2316.98 1770.93C2317.51 1770.69 2317.97 1770.31 2318.37 1769.78C2318.75 1769.25 2319.06 1768.58 2319.26 1767.78C2319.46 1767.01 2319.54 1766.32 2319.47 1765.65C2319.38 1765.01 2319.17 1764.47 2318.82 1764.01C2318.49 1763.58 2317.99 1763.27 2317.32 1763.09C2316.66 1762.91 2316.04 1762.95 2315.51 1763.16C2314.97 1763.39 2314.52 1763.77 2314.14 1764.3C2313.76 1764.83 2313.48 1765.45 2313.27 1766.18C2313.07 1766.92 2313.02 1767.64 2313.08 1768.31C2313.15 1768.95 2313.36 1769.53 2313.71 1769.99C2314.07 1770.48 2314.57 1770.81 2315.24 1770.97Z" fill="#4E4E4E"/>
<path d="M1424.18 2887.97C1424.92 2887.55 1438.59 2892.52 1439.01 2893.26C1439.43 2894 1428.42 2916.15 1428.42 2916.15C1428.42 2916.15 1414.42 2910.46 1413.99 2909.71C1413.56 2908.97 1423.44 2888.41 1424.18 2887.97Z" fill="#969899"/>
<path d="M1410.85 2954.1L1428.42 2916.15M1428.42 2916.15L1453.62 2927.38M1428.42 2916.15C1428.42 2916.15 1414.42 2910.46 1413.99 2909.71C1413.56 2908.97 1423.44 2888.41 1424.18 2887.97C1424.92 2887.55 1438.59 2892.51 1439.01 2893.26C1439.44 2894 1428.42 2916.15 1428.42 2916.15Z" stroke="url(#paint31_linear_1084_2501)" stroke-width="10" stroke-linecap="round"/>
<path d="M1111.05 2534.9L1111.04 2534.9L1120.17 2540.77" stroke="url(#paint32_linear_1084_2501)" stroke-width="10" stroke-linecap="round" stroke-linejoin="round"/>
<path d="M1308.51 2252.7C1308.81 2251.21 1288.29 2223.99 1286.38 2223.9C1284.46 2223.81 1213.07 2255.62 1212.77 2257.11C1212.45 2258.6 1234.6 2287.39 1235.4 2288.18C1236.2 2288.97 1308.21 2254.18 1308.51 2252.7Z" fill="url(#paint33_radial_1084_2501)"/>
<path d="M1257.05 2287.82C1256.08 2288.42 1246.41 2313.39 1246.99 2314.41C1247.54 2315.44 1319.17 2344.54 1320.14 2343.93C1321.11 2343.35 1330.78 2318.37 1330.22 2317.36C1329.65 2316.33 1258.02 2287.24 1257.05 2287.82Z" fill="url(#paint34_radial_1084_2501)"/>
<path d="M1206.63 2364.85C1207.06 2363.83 1208.22 2363.35 1209.25 2363.77L1238.49 2375.87C1239.51 2376.3 1239.99 2377.47 1239.57 2378.49L1227.29 2408.16C1226.86 2409.2 1227.37 2410.39 1228.42 2410.79L1252.99 2420.29C1253.69 2420.55 1254.18 2421.19 1254.26 2421.93L1255.18 2430.26C1255.26 2431.02 1254.9 2431.77 1254.25 2432.17L1247.94 2436.12C1247.42 2436.45 1246.78 2436.52 1246.21 2436.31L1221.38 2427.41C1220.38 2427.05 1219.27 2427.54 1218.86 2428.53L1208.01 2454.76C1207.58 2455.78 1206.41 2456.26 1205.39 2455.84L1176.15 2443.74C1175.13 2443.31 1174.64 2442.14 1175.07 2441.12L1206.63 2364.85Z" fill="url(#paint35_radial_1084_2501)"/>
<path d="M1889.01 2670.06C1888.91 2670.57 1888.41 2670.92 1887.89 2670.85L1827.32 2662.12C1826.77 2662.04 1826.39 2661.54 1826.47 2660.99L1829.27 2642.03C1829.34 2641.54 1829.76 2641.17 1830.26 2641.17L1841.83 2641.17C1842.34 2641.17 1842.76 2640.8 1842.82 2640.3L1849.59 2586.2C1849.66 2585.66 1850.15 2585.27 1850.69 2585.33L1892.64 2590.1C1893.22 2590.16 1893.62 2590.71 1893.51 2591.28L1883.5 2643.54C1883.4 2644.07 1883.73 2644.58 1884.25 2644.7L1892.77 2646.75C1893.29 2646.88 1893.62 2647.4 1893.52 2647.93L1889.01 2670.06Z" fill="url(#paint36_radial_1084_2501)"/>
<path d="M2214.67 2567.73C2214.47 2567.22 2214.71 2566.64 2215.23 2566.43L2282.05 2539.38C2282.56 2539.18 2283.15 2539.42 2283.35 2539.93L2285.61 2545.51C2285.76 2545.89 2286.13 2546.14 2286.53 2546.11C2295.09 2545.38 2308.51 2530.94 2315.45 2509.62C2315.63 2509.04 2316.29 2508.75 2316.84 2509.01L2330.44 2515.59C2330.92 2515.82 2331.13 2516.4 2330.92 2516.89C2322.08 2537.49 2312.57 2548.97 2294.67 2567.37C2294.57 2567.47 2294.46 2567.55 2294.33 2567.61L2226.77 2594.95C2226.26 2595.16 2225.68 2594.91 2225.47 2594.4L2214.67 2567.73Z" fill="url(#paint37_radial_1084_2501)"/>
<path d="M1278.26 3248.58L1627.47 3138.3M1627.47 3138.3L1673.35 3123.92M1627.47 3138.3L1646.15 3198.26M1646.15 3198.26L1676.96 3297.04M1646.15 3198.26L1420.8 3274.27M1646.15 3198.26L1789.57 3149.88M1676.96 3297.04L1878.3 3231.03L1868.86 3200.86M1676.96 3297.04L1511.86 3349.02L1494.01 3317.84M1868.86 3200.86L1858.91 3169M1868.86 3200.86L1494.01 3317.84M1494.01 3317.84L1438.07 3335.29L1429.53 3305.11M1858.91 3169L1853.4 3151.39L1789.57 3149.88M1858.91 3169L1429.53 3305.11M1789.57 3149.88L1708.77 3147.98L1412.08 3243.42L1420.8 3274.27M1429.53 3305.11L1345.38 3331.51M1429.53 3305.11L1420.8 3274.27" stroke="white" stroke-width="10" stroke-linecap="round" stroke-linejoin="round"/>
<path d="M3002.96 2001.16L2969.83 2000M2969.83 2000L2746.99 2264.1L2719.32 2241.52M2969.83 2000L2927.67 1998.55M2886.38 1999.17L2694.81 2221.05L2719.32 2241.52M2886.38 1999.17L2927.67 1998.55M2886.38 1999.17L2896.28 1986.67M2719.32 2241.52L2927.67 1998.55" stroke="white" stroke-width="10" stroke-linecap="round" stroke-linejoin="round"/>
<path d="M951.137 2401.59L936.648 2369.39L893.445 2323.11L705.871 2120.81L369.467 1758.13L201.647 1580.04L240.283 1534.92M951.137 2401.59L1017.89 2399.59M951.137 2401.59L928.735 2410.59M951.137 2401.59L961.5 2363.5L781.5 2159.29M240.283 1534.92L305.825 1518.48L326.008 1510.77L375.974 1535.59L947.32 2159.29L989.913 2247.5L1017.89 2399.59M240.283 1534.92L178.325 1567.48M240.283 1534.92L398.949 1438.16L416.558 1419.06M1017.89 2399.59L1135.83 2439.01M1160.75 2447.34L1200.35 2350.44M1160.75 2447.34L1176.83 2481.48L1317.08 2547.58M1160.75 2447.34L1135.83 2439.01M481.398 1444.9L498.961 1482.25L1170.45 1883.67L1281.14 2202.72L1231.49 2222.54L1126.37 2274.45L1160.95 2303.94L1204.59 2318.29L1220.24 2318.14M481.398 1444.9L515.777 1377.49M481.398 1444.9L416.558 1419.06M1220.24 2318.14L1274.33 2339.48M1220.24 2318.14L1200.35 2350.44M515.777 1377.49L585.499 1344L628 1321.5L886.499 1394L1148.5 1468.5L1456.5 1551C1456.5 1551 1876.75 1676.95 1935.5 1688.5C1994.25 1700.03 2022 1700 2022 1700C2022 1700 2089.62 1637.9 2093.3 1628.84C2096.97 1619.78 2158.5 1502.02 2158.5 1502.02C2158.5 1502.02 2168.51 1490.28 2183.5 1478.64C2198.49 1467 2202.19 1464.86 2213.07 1461.53C2223.96 1458.2 2262.76 1448.62 2271.54 1448.5C2280.32 1448.36 2370.07 1460.77 2379.4 1463.29C2388.71 1465.82 2419.7 1493.21 2433.5 1507C2447.3 1520.8 2472.54 1546.99 2472.54 1546.99L2589.45 1644.68C2589.45 1644.68 2568.11 1691.67 2568.76 1696.24C2569.41 1700.81 2602.5 1738.5 2602.5 1738.5L2613.5 1789.5C2613.5 1789.5 2631.72 1819.58 2647 1856C2660.62 1888.46 2669.84 1926.29 2672 1932.5C2676.59 1945.69 2724.17 1931.75 2724.5 1937.5C2724.63 1939.71 2724.5 1979 2724.5 2014M515.777 1377.49L416.558 1419.06M2251.36 2622.34L2327.38 2569.45L2379.56 2507.58L2429.11 2380.9L2473.06 2328.74L2543.99 2208.5C2543.99 2208.5 2599.41 2155.55 2652.5 2098.5M2251.36 2622.34L2195.05 2646.01L2184.24 2659.8M2251.36 2622.34L1836.69 2575.2M2184.24 2659.8L2169.44 2678.64L2194.98 2730.19L2168.05 2844.77L2131.52 2906.5L2050.48 3010.79L1923.32 3117.04L1644.97 3120.71L1580.62 3111.42L1496.42 3082.92L1331.11 2928.13L1251.11 2820.98L1199.16 2683.74L1214.75 2662.84M2184.24 2659.8C2184.24 2659.8 2166.44 2673.65 2154.31 2681.46C2129.29 2697.55 2089.41 2712.16 2085.97 2715.07C2080 2720.11 2060.36 2780.38 2060.36 2780.38C2054.08 2795.12 2044.21 2799.23 2021.18 2803.05C2021.18 2803.05 1836.1 2794.31 1828.06 2794.01C1820.02 2793.73 1795.22 2781.35 1795.22 2781.35M1214.75 2662.84L1246.99 2652.11L1285.32 2627.95M1214.75 2662.84L1077.05 2712.82M1285.32 2627.95L1290.92 2629.15L1339.1 2639.4L1390.35 2653.3L1592.1 2718.7L1795.22 2781.35M1285.32 2627.95L1106.98 2505.44M1285.32 2627.95L1317.08 2547.58M1795.22 2781.35L1836.69 2575.2M1836.69 2575.2L1812.03 2571.65L1691.35 2513.78L1565.6 2460.83L1449.41 2421.14L1418.43 2427.18L1400.99 2396.7L1369.46 2384.24M1369.46 2384.24L1362.34 2381.44M1369.46 2384.24L1340.05 2475.94M1274.33 2339.48C1274.33 2339.48 1244.33 2403.98 1248.83 2409.98C1253.33 2415.98 1272.19 2406.42 1287.16 2404.14M1274.33 2339.48L1292.22 2344.59M1362.34 2381.44L1355.22 2378.63L1326.59 2357.37L1292.22 2344.59M1362.34 2381.44L1287.16 2404.14M1340.05 2475.94C1308.82 2453.11 1297.65 2437.18 1287.16 2404.14M1340.05 2475.94L1317.08 2547.58M1287.16 2404.14C1284.98 2394.91 1282.64 2379.3 1283.77 2365.98M1200.35 2350.44L1283.77 2365.98M1200.35 2350.44L1176.33 2341.48L1135.83 2439.01M1292.22 2344.59C1286.97 2348.75 1284.54 2356.82 1283.77 2365.98M2724.5 2014C2706.68 2040.63 2679.71 2069.26 2652.5 2098.5M2724.5 2014L2652.5 2098.5" stroke="white" stroke-width="10" stroke-linecap="round" stroke-linejoin="round"/>
<path d="M2258.89 674.762C2261.33 677.308 2332.5 665.826 2334.08 666.887M2258.89 674.762C2256.45 672.215 2236.01 564.259 2232.83 562.139M2258.89 674.762L2290.71 856.315M2334.08 666.887C2335.68 667.946 2415.81 783.927 2415.81 783.927L2481.81 880.366L2594.97 1071.27L2673.84 1224.61C2673.84 1224.61 2743.37 1335.84 2743.91 1338.49C2744.45 1341.15 2757.48 1381.13 2756.12 1383.91C2754.76 1386.67 2469.12 1536.48 2468.5 1538.83C2467.88 1541.17 2588.34 1639.43 2589 1644M2334.08 666.887L2499 531M2589 1644C2589.64 1648.57 2621.15 1662.84 2621.69 1665.5C2629.43 1673 2639 1682.5 2647.96 1694C2661.5 1709.5 2649.45 1696.45 2651.04 1697.5M2589 1644C2588.15 1642.51 2563.44 1624.04 2561 1621.5C2558.57 1618.95 2540.5 1600.92 2521 1584.44C2496.24 1568 2449 1522 2449 1522C2449 1522 2412.96 1481.36 2404 1474M2589 1644C2634.35 1666.14 2636.99 1688.95 2678.57 1724.77M2589 1644C2589.68 1645.19 2570.56 1685.53 2572.27 1699.16M2651.04 1697.5C2652.63 1698.56 2677.71 1723.29 2678.57 1724.77M2651.04 1697.5L2720.5 1660.54M2678.57 1724.77C2679.41 1726.26 2740.29 1806.21 2743.16 1809.5C2746.02 1812.8 2789.12 1871.78 2791.25 1875.5C2793.37 1879.22 2814.11 1931.83 2815.5 1935.97C2816.9 1940.12 2817.59 1982.99 2817.5 1988C2817.42 1993 2820.35 2028.41 2819.3 2030C2818.25 2031.61 2781.03 2084.64 2778.5 2087.1C2775.96 2089.55 2627.24 2264.56 2623.86 2265.53M2678.57 1724.77C2698.27 1750.17 2714.56 1771.39 2730.07 1792M2623.86 2265.53C2615.65 2258.5 2560 2210.82 2553.41 2205.17C2552.88 2202.52 2722.63 2015.05 2723.68 2013.46M2623.86 2265.53L2799.91 2062.4C2820.08 2038.01 2825.02 2020.01 2826.22 1982.83L2902.82 1986.03M2623.86 2265.53L2550.37 2350.33C2497.41 2424.37 2471.87 2466.03 2437.53 2538.37C2417.19 2595.02 2397.32 2621.76 2348.4 2661.23L2190.39 2749.68M2623.86 2265.53L2482.96 2144.82M2723.68 2013.46C2724.13 2012.77 2725.06 1998.83 2725.91 1982.95M2723.68 2013.46L2615.92 1973M2725.91 1982.95L2824.94 1980.6M2725.91 1982.95C2726.7 1968.25 2727.42 1951.89 2727.63 1942.86M2232.83 562.139C2229.64 560.02 2154.6 583.644 2150.48 585.039M2232.83 562.139C2279.97 543.014 2303.09 528.198 2332.37 486.725C2365.02 430.959 2375.29 388.077 2370.48 278.163M2290.71 856.315L2404 1474M2290.71 856.315L2199.45 866.551M2150.48 585.039C2115.97 597.304 2095.09 598.983 2056.89 598.607M2150.48 585.039C2148.9 585.576 2171.32 711.539 2199.45 866.551M2370.48 278.163L2416.07 251.198M2370.48 278.163L2013.92 489.099M2056.89 598.607C2060.49 601.471 2138.6 1056.18 2138.6 1056.18L2176.74 1277.64L2185.47 1361.68C2185.47 1361.68 2216.25 1458.13 2219 1459.5M2056.89 598.607C2055.92 597.839 2050.09 597.244 2042.07 596.788M2199.45 866.551C2244.56 1115.12 2315.04 1446.07 2308.5 1451M2219 1459.5C2221.76 1460.87 2251.5 1449 2271 1448C2290.5 1447 2307.03 1451.85 2308.5 1451M2219 1459.5C2246 1453.91 2263 1444.5 2308.5 1451M2219 1459.5C2206.21 1462.94 2189.28 1474.12 2186 1477C2182.73 1479.88 2157 1503.5 2157 1503.5C2157 1503.5 2113.74 1593.5 2102.5 1608.5C2099.24 1615.5 2091.64 1634.96 2089 1635.5C2087.54 1635.79 2074.48 1659.94 2057 1669.5M2308.5 1451C2312.73 1451.52 2364.34 1458.73 2369 1460C2371.91 1460.79 2389.15 1461.79 2404 1474M2042.07 596.788C2020.23 595.542 1982.19 595.308 1982.19 595.308C1982.19 595.308 1889.33 575.777 1885.1 575.257M2042.07 596.788L2013.92 489.099M1885.1 575.257C1880.86 574.737 1849.78 578.869 1845.66 580.264C1841.53 581.659 617.196 1295.04 610.229 1300.06L515.5 1377.5M1885.1 575.257C1916.6 559.567 1932.69 548.462 1957.3 522.588L2013.92 489.099M636.001 1323C638.644 1322.46 1962.31 1695.73 1964.21 1695.61C1966.12 1695.5 2019.1 1702.11 2021 1702C2021.85 1701.94 2042.81 1677.26 2057 1669.5M2057 1669.5L2100.76 1676.98M2824.94 1980.6C2826.04 1949.97 2825.66 1932.56 2806.69 1897.11C2776.42 1854.63 2754.19 1824.06 2730.07 1792M2824.94 1980.6L2902.82 1986.03M2572.27 1699.16C2572.81 1701.82 2597.65 1732.98 2600.94 1737.02C2604.24 1741.05 2608.58 1770.22 2615.92 1790.71C2624.76 1815.4 2634.87 1827.27 2643.93 1851.71C2653.01 1876.17 2652.44 1882.17 2659.42 1901.15C2664.8 1915.74 2674.14 1937.19 2674.57 1937.93C2674.99 1938.68 2726.71 1934.48 2727.57 1935.97C2727.71 1936.24 2727.73 1938.8 2727.63 1942.86M2572.27 1699.16C2572.27 1699.16 2561.07 1741.27 2551.04 1746.09C2541 1750.91 2511.03 1741.52 2496.24 1750.08C2481.45 1758.63 2483.15 1766.56 2483.15 1766.56M2572.27 1699.16C2572.16 1698.61 2572.7 1702.64 2572.27 1699.16ZM2572.27 1699.16L2442.53 1621.78C2424.12 1613.76 2412.26 1614.45 2390.35 1618.32L2143.31 1654.34C2122 1656.79 2114.18 1663.8 2100.76 1676.98M2727.63 1942.86L2903.05 1945.16M2483.15 1766.56C2531 1802.23 2566.73 1859.77 2574.8 1904.58C2590.62 1992.44 2569 2044.69 2482.96 2144.82M2483.15 1766.56C2472.04 1759.34 2459.63 1751.46 2445.12 1745.01L2100.76 1676.98M2902.82 1986.03L2903.05 1945.16M2902.82 1986.03L3018.83 1988.98M2903.05 1945.16L3055.33 1949.48M2482.96 2144.82L2262.34 2404.17M2262.34 2404.17L2235.86 2435.3C2229.07 2452.27 2230.71 2461.13 2251.55 2474.73L2370.71 2519.62M2262.34 2404.17C2262.34 2404.17 2341.75 2462.13 2347.06 2467.96C2352.37 2473.8 2373.44 2514.08 2373.44 2514.08M2830.5 1602L2764 1637.39M2730.07 1792L2782.5 1761.28M2847 1723.5L2824.5 1736.68M2824.5 1736.68L2764 1637.39M2824.5 1736.68L2782.5 1761.28M2764 1637.39L2720.5 1660.54M2782.5 1761.28L2720.5 1660.54" stroke="white" stroke-width="10"/>
<path d="M133.325 1531.98L-19.5496 1646.35L52.6786 1738.2L117.201 1835.49L267.533 1969.26L418.826 1853.48L133.325 1531.98Z" fill="url(#paint38_radial_1084_2501)"/>
<path d="M161.244 1803.22C160.02 1804.4 158.064 1804.32 156.932 1803.06L86.1622 1724.03C85.1233 1722.87 85.1449 1721.11 86.2119 1719.97L133.235 1669.98C134.383 1668.76 136.31 1668.71 137.512 1669.88L161.899 1693.6C163.171 1694.83 163.098 1696.89 161.743 1698.04L151.31 1706.84C149.972 1707.97 149.882 1710 151.116 1711.25L173.662 1733.97C174.782 1735.1 176.588 1735.16 177.779 1734.1L189.423 1723.81C190.592 1722.77 192.358 1722.81 193.485 1723.89L216.451 1745.89C217.683 1747.07 217.684 1749.04 216.453 1750.22L161.244 1803.22Z" fill="url(#paint39_radial_1084_2501)"/>
<path d="M257.173 1732.73L299.84 1688.98M257.173 1732.73L277.868 1753.42M257.173 1732.73L242.81 1745.45M277.868 1753.42L192.13 1831.74M277.868 1753.42L299.84 1776.35M242.81 1745.45L170.337 1809.7M242.81 1745.45L179.789 1678.51M170.337 1809.7L192.13 1831.74M170.337 1809.7L143.432 1833.19L88.782 1780.67M192.13 1831.74L214.773 1855.26M299.84 1776.35L323.401 1800.32L237.417 1878.79L214.773 1855.26M299.84 1776.35L214.773 1855.26M179.789 1678.51L124.893 1620.2C119.463 1615.13 116.386 1615.12 110.713 1619.49L24.4144 1699.12M179.789 1678.51L237.417 1620.2" stroke="white" stroke-width="10" stroke-linecap="round" stroke-linejoin="round"/>
<rect x="2517.61" y="2014.98" width="35.5589" height="60.1126" transform="rotate(34.77 2517.61 2014.98)" fill="url(#paint40_radial_1084_2501)"/>
<path d="M2074 2349.5L2050 2374L1966 2326.49L2004.5 2287L2074 2349.5Z" fill="url(#paint41_radial_1084_2501)"/>
<path d="M1215.38 2993.37C1220.7 2991.42 1249.13 2981.25 1279.07 2975.48C1294.04 2972.6 1309.36 2970.82 1322.34 2971.7C1335.14 2972.57 1345.54 2976.03 1351.16 2983.42L1351.42 2983.77C1357.1 2991.58 1362.64 3004.29 1367.77 3019.16C1372.9 3034.01 1377.62 3050.98 1381.68 3067.29C1388.79 3095.82 1393.88 3122.29 1395.64 3131.79L1396.18 3134.77C1396.21 3134.96 1396.13 3135.14 1395.86 3135.24L1288.82 3177.82C1288.57 3177.92 1288.28 3177.8 1288.18 3177.54L1215.17 2993.99C1215.06 2993.72 1215.14 2993.51 1215.31 2993.4L1215.38 2993.37Z" fill="url(#paint42_radial_1084_2501)" stroke="#A1C48E"/>
<path d="M1365.63 2439.37C1365.68 2439.17 1365.84 2439.02 1366.03 2438.99L1366.12 2438.98L1447.13 2438.98C1447.16 2438.98 1447.19 2438.98 1447.22 2438.99L1447.32 2439.02L1728.02 2554.69C1728.18 2554.76 1728.29 2554.9 1728.32 2555.08L1728.33 2555.15L1728.33 2644.35C1728.33 2644.38 1728.32 2644.4 1728.32 2644.42L1728.31 2644.48L1704.11 2739.3L1704.07 2739.4C1703.98 2739.59 1703.77 2739.7 1703.57 2739.68L1703.46 2739.65L1326.34 2609.25C1326.13 2609.18 1326 2608.98 1326 2608.76L1326.02 2608.67L1365.63 2439.37Z" fill="url(#paint43_radial_1084_2501)" stroke="#A0C48D"/>
<path d="M1155.75 1912.24C1155.97 1912.17 1156.2 1912.27 1156.31 1912.46L1156.36 1912.54L1259.2 2187.85C1259.28 2188.06 1259.2 2188.3 1259.01 2188.43L1258.93 2188.48L1210.44 2209.48C1210.42 2209.49 1210.39 2209.5 1210.37 2209.51L1210.3 2209.52L1152.19 2215.98L1152.07 2215.97L1151.95 2215.95L1114.88 2201.74C1114.7 2201.68 1114.58 2201.51 1114.56 2201.32L1114.56 2201.24L1128.99 2032.12C1128.99 2032.08 1129 2032.04 1129 2032L1128.99 2031.88L1120.56 1922.77C1120.55 1922.57 1120.66 1922.38 1120.84 1922.29L1120.92 1922.26L1155.75 1912.24Z" fill="url(#paint44_radial_1084_2501)" stroke="#A0C48D"/>
<path d="M626.965 1308.54C626.08 1308.34 625.886 1307.17 626.662 1306.7L836 1181L918.139 1141.89C918.893 1141.53 919.724 1142.19 919.52 1143C914.19 1164.1 900.825 1181.56 863.792 1218.71C863.608 1218.89 863.498 1219.15 863.495 1219.41C862.927 1269.33 867.303 1293.41 882.898 1329.27C882.964 1329.42 883.069 1329.55 883.2 1329.66L910.375 1350.9C910.458 1350.97 910.55 1351.02 910.65 1351.05L966.084 1371.17C966.594 1371.35 966.863 1371.91 966.692 1372.42L963.289 1382.63C963.125 1383.12 962.614 1383.41 962.111 1383.29L859 1359L626.965 1308.54Z" fill="url(#paint45_radial_1084_2501)"/>
<path d="M1698.31 2772.65L1394.83 2674.8C1394.28 2674.63 1393.73 2674.85 1393.58 2675.41C1390.44 2687.38 1358.46 2811.95 1380.82 2840.98C1403.88 2870.9 1519.32 2918.15 1523.7 2919.93C1523.83 2919.98 1523.89 2919.98 1524.02 2919.97L1524.05 2919.97L1644.18 2913.02C1644.57 2912.99 1644.92 2912.75 1645.06 2912.38L1698.94 2773.97C1699.15 2773.43 1698.86 2772.83 1698.31 2772.65Z" fill="url(#paint46_radial_1084_2501)" stroke="#A0C59A"/>
<g opacity="0.5">
<path d="M1486.85 2283.11C1489.86 2269.37 1503.3 2263.1 1516.2 2263.1C1524.6 2263.1 1536.21 2269.73 1543.49 2274.37C1552.01 2279.79 1562.25 2285.13 1572.25 2287.41C1579.92 2289.17 1590.64 2289.87 1598.35 2287.71C1604.68 2285.94 1612.59 2280.45 1618.96 2280.45" stroke="#76ABD7" stroke-width="15" stroke-linecap="round"/>
<path d="M1609.62 2337.83C1610.68 2328.79 1623.91 2326.12 1630.67 2324.19C1637.5 2322.24 1645.2 2323.15 1652.32 2323.15C1659.74 2323.15 1666.47 2325.54 1673.97 2325.82C1681.32 2326.09 1688.77 2327.15 1696.36 2327.15" stroke="#76ABD7" stroke-width="15" stroke-linecap="round"/>
<path d="M1995.28 1901.46C1997.34 1901.23 2002.45 1896.95 2003.95 1895.45C2007.82 1891.58 2012.86 1890.4 2018.04 1888.78C2029.22 1885.29 2044.13 1885.29 2055.33 1888.85C2070.11 1893.56 2082.05 1904.74 2097.74 1907.09C2115.51 1909.76 2122.26 1899.3 2135.4 1889.45" stroke="#76ABD7" stroke-width="15" stroke-linecap="round"/>
<path d="M2106.04 1954.83C2106.49 1947.26 2118.28 1946.83 2123.98 1946.83C2135.76 1946.83 2146.23 1950.37 2157.56 1952.83C2167.47 1954.99 2178.03 1955.73 2188.18 1954.76C2196.69 1953.95 2199.62 1943.41 2206.12 1940.16" stroke="#76ABD7" stroke-width="15" stroke-linecap="round"/>
<path d="M1438.32 1968C1439.04 1954.97 1456.41 1938.29 1467.81 1933.22C1481.12 1927.31 1498.15 1924.57 1512.42 1928.35C1532.96 1933.79 1548.62 1950.92 1569.88 1955.82C1593.71 1961.32 1625.39 1963.9 1643.98 1945.32" stroke="#76ABD7" stroke-width="15" stroke-linecap="round"/>
<path d="M1603.69 2013.06C1603.69 2008.77 1615.85 2003.07 1619.69 2002.04C1626.47 2000.2 1632.56 1997.86 1639.68 1997.86C1651.43 1997.86 1662.13 1999.56 1673.63 2001.86C1685.41 2004.21 1699.15 2006.18 1710.87 2002.66" stroke="#76ABD7" stroke-width="15" stroke-linecap="round"/>
<path d="M1110.42 1673.02C1114.21 1673.02 1118.88 1668.42 1122.42 1666.54C1126.76 1664.25 1130.33 1662.21 1135.28 1661.11C1146.83 1658.55 1160.83 1663.13 1171.19 1667.5C1184.28 1673.01 1196.34 1681.19 1210.71 1683.4C1222.27 1685.18 1246 1688.15 1252.71 1674.73" stroke="#76ABD7" stroke-width="15" stroke-linecap="round"/>
<path d="M1233.85 1733.02C1242.27 1728.68 1249.96 1723.58 1259.94 1726.54C1269.35 1729.33 1279.22 1732.51 1287.85 1737.3C1296.07 1741.87 1311.39 1740.74 1320.51 1739.78C1335.22 1738.23 1346.6 1727.27 1360.7 1724.45" stroke="#76ABD7" stroke-width="15" stroke-linecap="round"/>
<path d="M740.062 1745.87C755.797 1738.47 769.438 1737.89 783.678 1746.95C789.981 1750.96 792.664 1755.59 801.384 1755.59C808.807 1755.59 817.241 1756.84 823.624 1753.65" stroke="#76ABD7" stroke-width="15" stroke-linecap="round"/>
<path d="M788.644 1794.46C807.526 1777.67 848.959 1811.73 858.602 1782.8" stroke="#76ABD7" stroke-width="15" stroke-linecap="round"/>
<path d="M897.468 1936.32C897.468 1918.91 921.728 1920.87 932.447 1927.57C942.455 1933.83 958.148 1932.43 969.477 1932.43C984.235 1932.43 988.924 1922.53 996.575 1911.05" stroke="#76ABD7" stroke-width="15" stroke-linecap="round"/>
<path d="M1202.26 1122.23C1202.26 1116.12 1207.8 1111.89 1210.09 1106.28C1211.76 1102.18 1218.52 1098.99 1222.5 1097.25C1232.66 1092.81 1243.36 1098.58 1252.45 1101.99C1266.04 1107.09 1276.4 1118.39 1290.61 1123.29C1299.58 1126.38 1307.72 1126.87 1317.47 1126.22C1322.15 1125.91 1327.25 1123.65 1331.4 1121.48C1334.5 1119.86 1335.48 1116.66 1339.07 1115.46" stroke="#76ABD7" stroke-width="15" stroke-linecap="round"/>
<path d="M1317.4 1088.37C1317.74 1085.34 1323.79 1082.25 1326.13 1080.54C1331.76 1076.43 1338.36 1074.24 1345.02 1072.79C1355.89 1070.43 1364.17 1070.5 1374.89 1074.07C1383.34 1076.89 1395.02 1082.63 1403.79 1082.95C1413.39 1083.31 1419.71 1081.81 1428.47 1078.89" stroke="#76ABD7" stroke-width="15" stroke-linecap="round"/>
<path d="M1272.7 1334.9C1273.2 1325.92 1285.59 1320.19 1292.26 1315.93C1300.83 1310.47 1309.18 1309.4 1318.45 1306.75C1324.76 1304.95 1332.02 1307.48 1336.89 1311.27C1343.78 1316.63 1351.22 1317.29 1360.07 1317.29C1372.44 1317.29 1381.56 1318.76 1391.9 1311.87" stroke="#76ABD7" stroke-width="15" stroke-linecap="round"/>
<path d="M1349.91 1351.15C1362.96 1350.06 1372.38 1351.23 1384.83 1354.92C1389.94 1356.43 1405.61 1357.6 1408.15 1352.51" stroke="#76ABD7" stroke-width="15" stroke-linecap="round"/>
<path d="M1633.01 1123.59C1637.33 1108.91 1656.39 1110.04 1668.76 1110.04C1676.23 1110.04 1682.18 1112.65 1689.3 1114.86C1699.51 1118.03 1709.88 1120.72 1720.08 1124.11C1728.64 1126.97 1735.3 1130.36 1744.39 1130.36C1757.53 1130.36 1763.59 1129.55 1771.18 1118.17" stroke="#76ABD7" stroke-width="15" stroke-linecap="round"/>
<path d="M1595.08 1161.51C1602.97 1164.55 1607.94 1171 1617.06 1171C1621 1171 1624.93 1171 1628.87 1171C1632.64 1171 1634.9 1168.08 1638.35 1166.93C1650.44 1162.9 1660.63 1161.51 1673.65 1161.51" stroke="#76ABD7" stroke-width="15" stroke-linecap="round"/>
<path d="M2400.27 1021.63C2405.69 1011.1 2419.76 1005.52 2431.26 1004.47C2443.24 1003.38 2453.1 1007.8 2463.98 1011.81C2474.88 1015.82 2485.65 1025.32 2496.7 1017.03" stroke="#76ABD7" stroke-width="15" stroke-linecap="round"/>
<path d="M2457.67 1069.84C2462.02 1069.36 2465.72 1067.54 2470.42 1067.54C2478.37 1067.54 2483.59 1068.6 2491.08 1070.48C2499.16 1072.5 2518.36 1078.32 2521.95 1067.54" stroke="#76ABD7" stroke-width="15" stroke-linecap="round"/>
<path d="M2431.26 1306.31C2432.49 1294.69 2453.29 1293.66 2462 1296.24C2474.1 1299.82 2483.88 1310.72 2494.91 1316.65C2506.4 1322.82 2515.03 1329.27 2528.46 1329.27C2540.73 1329.27 2551.15 1319.25 2554.09 1307.46" stroke="#76ABD7" stroke-width="15" stroke-linecap="round"/>
</g>
<g opacity="0.5">
<path d="M3591.56 1174.06L3591.56 1282.06" stroke="#7D6B4B" stroke-width="15" stroke-linecap="round"/>
<path d="M3570.56 1185.06C3575.49 1188.26 3579.38 1193.64 3581.96 1198.91C3583 1201.02 3585.22 1202.34 3586.32 1204.29C3587.42 1206.23 3589.9 1208.06 3590.56 1210.06" stroke="#7D6B4B" stroke-width="15" stroke-linecap="round"/>
<path d="M3594.56 1203.06C3595.61 1200.21 3596.8 1197.38 3596.91 1194.3C3597.05 1190.51 3599.85 1187.21 3600.8 1183.64C3601.37 1181.5 3602.36 1179.49 3603.47 1177.59C3604.67 1175.55 3605.31 1173.09 3606.69 1171.16C3607.78 1169.63 3609.16 1168.35 3610.21 1166.82C3611.02 1165.66 3611.58 1164.02 3612.56 1163.06" stroke="#7D6B4B" stroke-width="15" stroke-linecap="round"/>
<path d="M3572.44 1218.04C3571.06 1218.12 3569.46 1218.85 3568.05 1219.2C3564.18 1220.14 3559.71 1220.65 3555.74 1220.65C3552.09 1220.65 3547.92 1221.09 3544.51 1219.57C3540.55 1217.81 3536.5 1216.25 3532.63 1214.27C3527.5 1211.64 3522.48 1204.51 3521.02 1199.01C3519.77 1194.32 3519.92 1189.72 3519.92 1184.86C3519.92 1181.48 3521.59 1179.24 3523.68 1176.92C3524.32 1176.2 3517.57 1171.2 3516.68 1170.13C3510.52 1162.71 3510.56 1150.51 3510.56 1141.31C3510.56 1136.56 3512.22 1132.51 3514.95 1128.67C3517.75 1124.74 3523.19 1123.72 3527.2 1121.71C3528.43 1121.09 3534.98 1121.15 3535 1120.43C3535.13 1116.25 3537.73 1112.56 3539.68 1108.95C3545.72 1097.79 3559.37 1091.9 3571.34 1091.23C3575.04 1091.03 3579.27 1090.73 3582.73 1092.25C3585.24 1093.35 3587.04 1095.39 3589.37 1096.71C3592.04 1098.23 3594.77 1101 3596.59 1103.5C3597.87 1105.24 3598.55 1107.69 3600 1109.24C3600.6 1109.87 3600.99 1110.68 3601.04 1111.56C3601.09 1112.31 3603.22 1109.97 3603.9 1109.44C3606.38 1107.53 3607.81 1105.81 3610.89 1104.77C3614.91 1103.43 3618.76 1103.13 3622.88 1102.28C3629.34 1100.95 3634.32 1104.22 3639.55 1107.18C3643.95 1109.66 3649.44 1115.26 3651.72 1119.62C3653.4 1122.84 3653.15 1126.23 3653.04 1129.83C3653.01 1131 3651.13 1132.4 3650.16 1132.96C3649.75 1133.19 3646.93 1133.9 3647.56 1134.52C3650.82 1137.8 3655.41 1140.03 3659 1142.99C3661.89 1145.38 3664.72 1147.63 3667.14 1150.5C3671.99 1156.23 3674.37 1161.15 3674.37 1168.71C3674.37 1174.45 3675.7 1181.04 3671.36 1185.56C3668.52 1188.52 3665.42 1188.82 3661.65 1190.08C3659.12 1190.93 3656.19 1190.58 3653.56 1190.89C3652.96 1190.97 3654.6 1196.26 3654.6 1197.22C3654.6 1200.32 3655.04 1203.78 3654.49 1206.84C3653.79 1210.77 3649.27 1215.98 3645.48 1216.99C3643.23 1217.59 3641.11 1218.53 3638.89 1219.2C3636.56 1219.9 3633.73 1219.37 3631.49 1220.38C3628.53 1221.74 3623.19 1220.65 3619.88 1220.65C3618.95 1220.65 3614.49 1217.59 3615.08 1216.99" stroke="#3F6927" stroke-width="15" stroke-linecap="round"/>
<path d="M3391.48 1248.26L3391.48 1315.55" stroke="#7D6B4B" stroke-width="15" stroke-linecap="round"/>
<path d="M3378.4 1255.11C3381.47 1257.1 3383.89 1260.45 3385.51 1263.74C3386.15 1265.06 3387.53 1265.88 3388.22 1267.09C3388.91 1268.3 3390.45 1269.44 3390.86 1270.69" stroke="#7D6B4B" stroke-width="15" stroke-linecap="round"/>
<path d="M3393.35 1266.33C3394 1264.55 3394.75 1262.78 3394.82 1260.87C3394.9 1258.5 3396.65 1256.45 3397.24 1254.22C3397.59 1252.89 3398.21 1251.64 3398.91 1250.46C3399.65 1249.18 3400.05 1247.65 3400.91 1246.45C3401.59 1245.5 3402.45 1244.7 3403.1 1243.75C3403.6 1243.02 3403.96 1242 3404.57 1241.4" stroke="#7D6B4B" stroke-width="15" stroke-linecap="round"/>
<path d="M3379.57 1275.66C3378.71 1275.71 3377.72 1276.16 3376.84 1276.38C3374.43 1276.97 3371.64 1277.28 3369.17 1277.28C3366.89 1277.28 3364.29 1277.56 3362.17 1276.61C3359.7 1275.51 3357.18 1274.54 3354.77 1273.31C3351.57 1271.67 3348.44 1267.23 3347.53 1263.8C3346.75 1260.88 3346.85 1258.02 3346.85 1254.99C3346.85 1252.88 3347.89 1251.49 3349.19 1250.04C3349.59 1249.59 3345.38 1246.47 3344.83 1245.81C3340.99 1241.18 3341.02 1233.58 3341.02 1227.85C3341.02 1224.89 3342.05 1222.37 3343.75 1219.97C3345.49 1217.53 3348.88 1216.89 3351.38 1215.64C3352.15 1215.25 3356.23 1215.29 3356.24 1214.84C3356.32 1212.24 3357.94 1209.94 3359.16 1207.69C3362.92 1200.73 3371.43 1197.06 3378.89 1196.65C3381.19 1196.52 3383.82 1196.33 3385.98 1197.28C3387.54 1197.97 3388.67 1199.24 3390.12 1200.06C3391.78 1201.01 3393.48 1202.74 3394.62 1204.29C3395.41 1205.38 3395.84 1206.91 3396.74 1207.87C3397.12 1208.26 3397.36 1208.77 3397.39 1209.31C3397.42 1209.78 3398.75 1208.32 3399.17 1207.99C3400.72 1206.8 3401.61 1205.73 3403.53 1205.09C3406.03 1204.25 3408.43 1204.06 3411 1203.53C3415.02 1202.7 3418.12 1204.74 3421.39 1206.59C3424.13 1208.13 3427.55 1211.62 3428.96 1214.34C3430.01 1216.34 3429.86 1218.45 3429.79 1220.7C3429.77 1221.42 3428.6 1222.3 3427.99 1222.65C3427.74 1222.79 3425.98 1223.23 3426.37 1223.62C3428.41 1225.67 3431.26 1227.06 3433.5 1228.9C3435.3 1230.38 3437.06 1231.79 3438.58 1233.58C3441.59 1237.15 3443.08 1240.21 3443.08 1244.92C3443.08 1248.5 3443.91 1252.6 3441.2 1255.42C3439.43 1257.26 3437.5 1257.45 3435.16 1258.24C3433.58 1258.77 3431.75 1258.55 3430.12 1258.74C3429.74 1258.79 3430.76 1262.09 3430.76 1262.68C3430.76 1264.62 3431.03 1266.78 3430.69 1268.68C3430.25 1271.13 3427.44 1274.37 3425.08 1275C3423.67 1275.38 3422.36 1275.96 3420.97 1276.38C3419.52 1276.82 3417.76 1276.48 3416.36 1277.12C3414.52 1277.96 3411.19 1277.28 3409.13 1277.28C3408.55 1277.28 3405.77 1275.38 3406.14 1275" stroke="#3F6927" stroke-width="15" stroke-linecap="round"/>
<path d="M3339.81 1077.24L3339.81 1144.53" stroke="#7D6B4B" stroke-width="15" stroke-linecap="round"/>
<path d="M3326.72 1084.09C3329.79 1086.08 3332.22 1089.43 3333.83 1092.72C3334.48 1094.04 3335.86 1094.86 3336.55 1096.07C3337.23 1097.28 3338.78 1098.42 3339.19 1099.67" stroke="#7D6B4B" stroke-width="15" stroke-linecap="round"/>
<path d="M3341.68 1095.31C3342.33 1093.53 3343.07 1091.76 3343.14 1089.85C3343.23 1087.48 3344.97 1085.43 3345.57 1083.2C3345.92 1081.87 3346.54 1080.62 3347.23 1079.44C3347.98 1078.16 3348.38 1076.64 3349.24 1075.43C3349.91 1074.48 3350.77 1073.68 3351.43 1072.73C3351.93 1072 3352.28 1070.98 3352.89 1070.38" stroke="#7D6B4B" stroke-width="15" stroke-linecap="round"/>
<path d="M3327.9 1104.64C3327.04 1104.69 3326.04 1105.14 3325.16 1105.36C3322.75 1105.95 3319.96 1106.26 3317.49 1106.26C3315.21 1106.26 3312.62 1106.54 3310.49 1105.59C3308.02 1104.49 3305.5 1103.52 3303.09 1102.29C3299.9 1100.65 3296.77 1096.21 3295.86 1092.78C3295.08 1089.86 3295.17 1087 3295.17 1083.97C3295.17 1081.86 3296.21 1080.47 3297.51 1079.02C3297.92 1078.57 3293.71 1075.45 3293.16 1074.79C3289.32 1070.16 3289.34 1062.56 3289.34 1056.83C3289.34 1053.87 3290.37 1051.35 3292.08 1048.95C3293.82 1046.51 3297.21 1045.87 3299.71 1044.62C3300.47 1044.23 3304.56 1044.27 3304.57 1043.82C3304.65 1041.22 3306.27 1038.92 3307.48 1036.67C3311.25 1029.71 3319.75 1026.05 3327.21 1025.63C3329.52 1025.5 3332.15 1025.32 3334.31 1026.26C3335.87 1026.95 3337 1028.22 3338.45 1029.04C3340.11 1029.99 3341.81 1031.72 3342.95 1033.27C3343.74 1034.36 3344.16 1035.89 3345.07 1036.85C3345.44 1037.24 3345.69 1037.75 3345.72 1038.29C3345.74 1038.77 3347.07 1037.3 3347.5 1036.98C3349.04 1035.78 3349.93 1034.71 3351.86 1034.07C3354.35 1033.23 3356.76 1033.04 3359.33 1032.51C3363.35 1031.68 3366.45 1033.72 3369.71 1035.57C3372.45 1037.11 3375.87 1040.6 3377.29 1043.32C3378.34 1045.32 3378.19 1047.43 3378.12 1049.68C3378.1 1050.41 3376.93 1051.28 3376.32 1051.63C3376.06 1051.77 3374.31 1052.21 3374.7 1052.6C3376.73 1054.65 3379.59 1056.04 3381.83 1057.88C3383.63 1059.36 3385.39 1060.77 3386.9 1062.56C3389.92 1066.13 3391.4 1069.19 3391.4 1073.9C3391.4 1077.48 3392.23 1081.59 3389.53 1084.4C3387.76 1086.24 3385.83 1086.44 3383.48 1087.22C3381.9 1087.75 3380.08 1087.53 3378.44 1087.73C3378.06 1087.77 3379.09 1091.07 3379.09 1091.66C3379.09 1093.6 3379.36 1095.76 3379.02 1097.66C3378.58 1100.11 3375.76 1103.35 3373.4 1103.99C3372 1104.36 3370.68 1104.94 3369.3 1105.36C3367.84 1105.8 3366.08 1105.46 3364.69 1106.1C3362.84 1106.94 3359.52 1106.26 3357.45 1106.26C3356.87 1106.26 3354.1 1104.36 3354.47 1103.99" stroke="#3F6927" stroke-width="15" stroke-linecap="round"/>
<path d="M3089.81 1246.24L3089.81 1313.53" stroke="#7D6B4B" stroke-width="15" stroke-linecap="round"/>
<path d="M3076.72 1253.09C3079.79 1255.08 3082.22 1258.43 3083.83 1261.72C3084.48 1263.04 3085.85 1263.85 3086.55 1265.07C3087.23 1266.28 3088.78 1267.42 3089.18 1268.67" stroke="#7D6B4B" stroke-width="15" stroke-linecap="round"/>
<path d="M3091.68 1264.31C3092.33 1262.53 3093.07 1260.76 3093.14 1258.85C3093.23 1256.48 3094.97 1254.43 3095.57 1252.2C3095.92 1250.87 3096.54 1249.62 3097.23 1248.44C3097.98 1247.16 3098.38 1245.63 3099.24 1244.43C3099.91 1243.48 3100.77 1242.68 3101.43 1241.73C3101.93 1241 3102.28 1239.98 3102.89 1239.38" stroke="#7D6B4B" stroke-width="15" stroke-linecap="round"/>
<path d="M3077.9 1273.63C3077.04 1273.69 3076.04 1274.14 3075.16 1274.36C3072.75 1274.95 3069.96 1275.26 3067.49 1275.26C3065.21 1275.26 3062.62 1275.54 3060.49 1274.59C3058.02 1273.49 3055.5 1272.52 3053.09 1271.29C3049.9 1269.65 3046.77 1265.21 3045.86 1261.78C3045.08 1258.86 3045.17 1256 3045.17 1252.97C3045.17 1250.86 3046.21 1249.46 3047.51 1248.02C3047.92 1247.57 3043.71 1244.45 3043.16 1243.79C3039.32 1239.16 3039.34 1231.56 3039.34 1225.83C3039.34 1222.87 3040.37 1220.35 3042.08 1217.95C3043.82 1215.51 3047.21 1214.87 3049.71 1213.62C3050.47 1213.23 3054.56 1213.27 3054.57 1212.82C3054.65 1210.21 3056.27 1207.92 3057.48 1205.67C3061.25 1198.71 3069.75 1195.04 3077.21 1194.63C3079.52 1194.5 3082.15 1194.31 3084.31 1195.26C3085.87 1195.95 3087 1197.22 3088.45 1198.04C3090.11 1198.99 3091.81 1200.72 3092.95 1202.27C3093.74 1203.36 3094.16 1204.89 3095.07 1205.85C3095.44 1206.24 3095.69 1206.75 3095.72 1207.29C3095.74 1207.76 3097.07 1206.3 3097.5 1205.97C3099.04 1204.78 3099.93 1203.71 3101.86 1203.07C3104.35 1202.23 3106.76 1202.04 3109.33 1201.51C3113.35 1200.68 3116.45 1202.72 3119.71 1204.57C3122.45 1206.11 3125.87 1209.6 3127.29 1212.32C3128.34 1214.32 3128.19 1216.43 3128.12 1218.68C3128.1 1219.4 3126.93 1220.28 3126.32 1220.63C3126.06 1220.77 3124.31 1221.21 3124.7 1221.6C3126.73 1223.65 3129.59 1225.03 3131.83 1226.88C3133.63 1228.36 3135.39 1229.77 3136.9 1231.56C3139.92 1235.13 3141.4 1238.19 3141.4 1242.9C3141.4 1246.48 3142.23 1250.58 3139.53 1253.4C3137.76 1255.24 3135.83 1255.43 3133.48 1256.22C3131.9 1256.75 3130.08 1256.53 3128.44 1256.72C3128.06 1256.77 3129.09 1260.07 3129.09 1260.66C3129.09 1262.59 3129.36 1264.75 3129.02 1266.66C3128.58 1269.11 3125.76 1272.35 3123.4 1272.98C3122 1273.36 3120.68 1273.94 3119.3 1274.36C3117.84 1274.8 3116.08 1274.46 3114.69 1275.1C3112.84 1275.94 3109.52 1275.26 3107.45 1275.26C3106.87 1275.26 3104.1 1273.36 3104.47 1272.98" stroke="#3F6927" stroke-width="15" stroke-linecap="round"/>
<path d="M2967.99 1013.3L2967.99 1114.16" stroke="#7D6B4B" stroke-width="15" stroke-linecap="round"/>
<path d="M2948.38 1023.58C2952.98 1026.56 2956.62 1031.59 2959.03 1036.51C2960 1038.48 2962.07 1039.71 2963.1 1041.54C2964.13 1043.34 2966.44 1045.05 2967.06 1046.92" stroke="#7D6B4B" stroke-width="15" stroke-linecap="round"/>
<path d="M2970.79 1040.39C2971.77 1037.72 2972.88 1035.08 2972.98 1032.21C2973.11 1028.66 2975.73 1025.59 2976.62 1022.25C2977.15 1020.25 2978.07 1018.37 2979.12 1016.6C2980.24 1014.69 2980.83 1012.4 2982.12 1010.6C2983.14 1009.17 2984.42 1007.97 2985.41 1006.54C2986.16 1005.46 2986.69 1003.93 2987.6 1003.03" stroke="#7D6B4B" stroke-width="15" stroke-linecap="round"/>
<path d="M2950.14 1054.37C2948.85 1054.45 2947.36 1055.13 2946.04 1055.45C2942.42 1056.34 2938.25 1056.81 2934.54 1056.81C2931.13 1056.81 2927.23 1057.23 2924.05 1055.81C2920.35 1054.16 2916.57 1052.7 2912.96 1050.85C2908.17 1048.4 2903.48 1041.74 2902.11 1036.61C2900.95 1032.22 2901.09 1027.93 2901.09 1023.39C2901.09 1020.23 2902.65 1018.14 2904.6 1015.97C2905.2 1015.3 2898.89 1010.63 2898.07 1009.64C2892.31 1002.7 2892.35 991.305 2892.35 982.718C2892.35 978.279 2893.9 974.497 2896.45 970.911C2899.06 967.244 2904.14 966.291 2907.89 964.412C2909.03 963.836 2915.15 963.893 2915.17 963.22C2915.29 959.313 2917.72 955.869 2919.54 952.496C2925.18 942.073 2937.93 936.574 2949.11 935.951C2952.56 935.758 2956.51 935.48 2959.74 936.898C2962.09 937.927 2963.77 939.831 2965.95 941.069C2968.44 942.489 2970.99 945.075 2972.69 947.405C2973.88 949.034 2974.52 951.325 2975.88 952.767C2976.43 953.36 2976.8 954.114 2976.85 954.934C2976.89 955.64 2978.88 953.449 2979.52 952.957C2981.83 951.169 2983.16 949.562 2986.05 948.597C2989.79 947.344 2993.39 947.061 2997.24 946.268C3003.28 945.026 3007.92 948.084 3012.81 950.845C3016.92 953.163 3022.04 958.388 3024.17 962.462C3025.74 965.467 3025.51 968.631 3025.41 971.994C3025.38 973.086 3023.62 974.396 3022.71 974.919C3022.33 975.137 3019.7 975.795 3020.28 976.381C3023.34 979.445 3027.62 981.526 3030.97 984.288C3033.67 986.516 3036.31 988.621 3038.58 991.302C3043.1 996.653 3045.32 1001.25 3045.32 1008.31C3045.32 1013.67 3046.57 1019.82 3042.52 1024.04C3039.86 1026.81 3036.96 1027.09 3033.45 1028.27C3031.09 1029.06 3028.35 1028.73 3025.9 1029.02C3025.33 1029.09 3026.87 1034.03 3026.87 1034.93C3026.87 1037.82 3027.27 1041.06 3026.76 1043.92C3026.1 1047.58 3021.88 1052.45 3018.34 1053.4C3016.24 1053.96 3014.26 1054.83 3012.19 1055.45C3010.01 1056.11 3007.37 1055.61 3005.28 1056.56C3002.52 1057.83 2997.53 1056.81 2994.44 1056.81C2993.57 1056.81 2989.41 1053.95 2989.96 1053.4" stroke="#3F6927" stroke-width="15" stroke-linecap="round"/>
<path d="M3222.7 1490.12L3222.7 1560.55" stroke="#7D6B4B" stroke-width="15" stroke-linecap="round"/>
<path d="M3209.01 1497.29C3212.22 1499.38 3214.76 1502.88 3216.44 1506.32C3217.12 1507.7 3218.56 1508.56 3219.29 1509.83C3220 1511.09 3221.62 1512.29 3222.05 1513.59" stroke="#7D6B4B" stroke-width="15" stroke-linecap="round"/>
<path d="M3224.66 1509.03C3225.34 1507.17 3226.12 1505.32 3226.19 1503.32C3226.28 1500.84 3228.11 1498.69 3228.73 1496.36C3229.1 1494.97 3229.74 1493.66 3230.47 1492.42C3231.25 1491.09 3231.67 1489.49 3232.57 1488.23C3233.28 1487.23 3234.18 1486.39 3234.86 1485.4C3235.39 1484.64 3235.76 1483.57 3236.4 1482.94" stroke="#7D6B4B" stroke-width="15" stroke-linecap="round"/>
<path d="M3210.23 1518.79C3209.33 1518.85 3208.29 1519.33 3207.37 1519.55C3204.85 1520.17 3201.93 1520.5 3199.34 1520.5C3196.96 1520.5 3194.24 1520.79 3192.01 1519.8C3189.43 1518.64 3186.8 1517.63 3184.27 1516.34C3180.93 1514.63 3177.65 1509.97 3176.7 1506.39C3175.88 1503.33 3175.98 1500.33 3175.98 1497.16C3175.98 1494.96 3177.07 1493.5 3178.43 1491.98C3178.85 1491.51 3174.45 1488.25 3173.87 1487.56C3169.85 1482.71 3169.88 1474.76 3169.88 1468.76C3169.88 1465.66 3170.96 1463.02 3172.74 1460.51C3174.56 1457.95 3178.11 1457.29 3180.73 1455.98C3181.53 1455.57 3185.8 1455.61 3185.82 1455.14C3185.9 1452.42 3187.59 1450.01 3188.87 1447.66C3192.81 1440.38 3201.71 1436.54 3209.52 1436.1C3211.93 1435.97 3214.68 1435.77 3216.94 1436.76C3218.58 1437.48 3219.76 1438.81 3221.27 1439.68C3223.01 1440.67 3224.79 1442.47 3225.98 1444.1C3226.81 1445.24 3227.26 1446.84 3228.21 1447.85C3228.6 1448.26 3228.85 1448.79 3228.88 1449.36C3228.91 1449.85 3230.3 1448.32 3230.75 1447.98C3232.37 1446.73 3233.29 1445.61 3235.31 1444.93C3237.93 1444.06 3240.44 1443.86 3243.13 1443.31C3247.34 1442.44 3250.58 1444.57 3254 1446.5C3256.87 1448.12 3260.45 1451.77 3261.93 1454.61C3263.03 1456.71 3262.87 1458.92 3262.8 1461.27C3262.77 1462.03 3261.55 1462.95 3260.91 1463.31C3260.65 1463.47 3258.81 1463.93 3259.22 1464.33C3261.35 1466.47 3264.34 1467.93 3266.68 1469.86C3268.56 1471.41 3270.41 1472.88 3271.99 1474.75C3275.15 1478.49 3276.7 1481.7 3276.7 1486.63C3276.7 1490.37 3277.57 1494.67 3274.74 1497.62C3272.89 1499.55 3270.86 1499.74 3268.41 1500.57C3266.76 1501.12 3264.85 1500.89 3263.14 1501.1C3262.74 1501.14 3263.81 1504.59 3263.81 1505.22C3263.81 1507.24 3264.1 1509.5 3263.74 1511.5C3263.28 1514.05 3260.33 1517.45 3257.86 1518.11C3256.39 1518.51 3255.01 1519.12 3253.56 1519.55C3252.04 1520.01 3250.2 1519.66 3248.74 1520.33C3246.81 1521.21 3243.33 1520.5 3241.17 1520.5C3240.56 1520.5 3237.65 1518.5 3238.04 1518.11" stroke="#3F6927" stroke-width="15" stroke-linecap="round"/>
<path d="M2692.93 970.788L2692.93 1041.22" stroke="#7D6B4B" stroke-width="15" stroke-linecap="round"/>
<path d="M2679.24 977.961C2682.45 980.045 2684.99 983.553 2686.68 986.99C2687.35 988.37 2688.8 989.228 2689.52 990.502C2690.24 991.764 2691.85 992.956 2692.28 994.264" stroke="#7D6B4B" stroke-width="15" stroke-linecap="round"/>
<path d="M2694.89 989.699C2695.57 987.837 2696.35 985.992 2696.42 983.986C2696.51 981.513 2698.34 979.364 2698.96 977.033C2699.33 975.64 2699.97 974.328 2700.7 973.09C2701.48 971.758 2701.9 970.157 2702.8 968.895C2703.51 967.899 2704.41 967.064 2705.1 966.067C2705.62 965.309 2705.99 964.241 2706.63 963.614" stroke="#7D6B4B" stroke-width="15" stroke-linecap="round"/>
<path d="M2680.46 999.465C2679.56 999.521 2678.52 999.996 2677.6 1000.22C2675.08 1000.84 2672.16 1001.17 2669.58 1001.17C2667.19 1001.17 2664.47 1001.46 2662.25 1000.47C2659.66 999.315 2657.03 998.298 2654.5 997.006C2651.16 995.295 2647.88 990.644 2646.93 987.06C2646.12 983.998 2646.21 981.002 2646.21 977.832C2646.21 975.627 2647.3 974.167 2648.66 972.651C2649.08 972.18 2644.68 968.919 2644.1 968.226C2640.08 963.384 2640.11 955.426 2640.11 949.429C2640.11 946.33 2641.19 943.689 2642.97 941.185C2644.8 938.624 2648.35 937.959 2650.96 936.646C2651.76 936.244 2656.03 936.284 2656.05 935.814C2656.13 933.086 2657.83 930.681 2659.1 928.326C2663.04 921.047 2671.94 917.207 2679.75 916.772C2682.16 916.638 2684.92 916.443 2687.17 917.434C2688.81 918.152 2689.99 919.481 2691.5 920.346C2693.25 921.338 2695.03 923.144 2696.21 924.771C2697.05 925.908 2697.49 927.508 2698.44 928.515C2698.83 928.929 2699.08 929.455 2699.12 930.028C2699.14 930.521 2700.54 928.991 2700.98 928.647C2702.6 927.399 2703.53 926.277 2705.54 925.603C2708.16 924.728 2710.67 924.53 2713.36 923.977C2717.57 923.109 2720.82 925.245 2724.23 927.172C2727.1 928.791 2730.68 932.44 2732.16 935.285C2733.26 937.383 2733.1 939.593 2733.03 941.941C2733 942.704 2731.78 943.618 2731.14 943.983C2730.88 944.136 2729.04 944.595 2729.45 945.004C2731.58 947.144 2734.57 948.597 2736.91 950.526C2738.8 952.081 2740.64 953.552 2742.22 955.424C2745.38 959.16 2746.93 962.367 2746.93 967.299C2746.93 971.043 2747.8 975.339 2744.97 978.286C2743.12 980.216 2741.1 980.415 2738.64 981.236C2736.99 981.788 2735.08 981.563 2733.37 981.765C2732.97 981.812 2734.05 985.262 2734.05 985.887C2734.05 987.909 2734.33 990.17 2733.97 992.165C2733.51 994.724 2730.57 998.122 2728.09 998.784C2726.63 999.176 2725.24 999.785 2723.8 1000.22C2722.27 1000.68 2720.43 1000.33 2718.97 1001C2717.04 1001.88 2713.56 1001.17 2711.4 1001.17C2710.79 1001.17 2707.89 999.172 2708.27 998.784" stroke="#3F6927" stroke-width="15" stroke-linecap="round"/>
<path d="M2366.58 546.881L2366.58 596.341" stroke="#7D6B4B" stroke-width="15" stroke-linecap="round"/>
<path d="M2356.96 551.918C2359.22 553.382 2361 555.845 2362.18 558.259C2362.66 559.228 2363.67 559.83 2364.18 560.725C2364.68 561.611 2365.82 562.448 2366.12 563.367" stroke="#7D6B4B" stroke-width="15" stroke-linecap="round"/>
<path d="M2367.95 560.161C2368.43 558.853 2368.98 557.558 2369.03 556.149C2369.09 554.412 2370.37 552.903 2370.81 551.266C2371.07 550.288 2371.52 549.366 2372.03 548.497C2372.58 547.562 2372.88 546.438 2373.51 545.552C2374 544.852 2374.64 544.265 2375.12 543.565C2375.49 543.033 2375.75 542.283 2376.19 541.843" stroke="#7D6B4B" stroke-width="15" stroke-linecap="round"/>
<path d="M2357.82 567.019C2357.19 567.059 2356.46 567.392 2355.81 567.55C2354.04 567.983 2351.99 568.214 2350.17 568.214C2348.5 568.214 2346.59 568.419 2345.03 567.723C2343.21 566.914 2341.36 566.199 2339.59 565.292C2337.24 564.091 2334.94 560.824 2334.27 558.307C2333.7 556.157 2333.77 554.053 2333.77 551.827C2333.77 550.279 2334.53 549.253 2335.49 548.188C2335.78 547.858 2332.69 545.568 2332.29 545.081C2329.46 541.681 2329.48 536.092 2329.48 531.881C2329.48 529.704 2330.24 527.85 2331.49 526.091C2332.77 524.293 2335.27 523.826 2337.1 522.904C2337.67 522.621 2340.66 522.65 2340.67 522.32C2340.73 520.403 2341.92 518.715 2342.82 517.061C2345.58 511.949 2351.84 509.253 2357.32 508.947C2359.01 508.853 2360.95 508.716 2362.53 509.412C2363.68 509.916 2364.51 510.85 2365.57 511.457C2366.8 512.153 2368.05 513.422 2368.88 514.564C2369.47 515.363 2369.78 516.487 2370.44 517.194C2370.72 517.484 2370.9 517.854 2370.92 518.256C2370.94 518.602 2371.92 517.528 2372.23 517.287C2373.36 516.41 2374.02 515.622 2375.43 515.149C2377.27 514.534 2379.03 514.395 2380.92 514.007C2383.88 513.397 2386.16 514.897 2388.56 516.251C2390.57 517.388 2393.08 519.95 2394.13 521.948C2394.9 523.422 2394.78 524.973 2394.73 526.622C2394.72 527.158 2393.86 527.8 2393.41 528.056C2393.22 528.163 2391.93 528.486 2392.22 528.773C2393.72 530.276 2395.82 531.296 2397.46 532.651C2398.78 533.743 2400.08 534.776 2401.19 536.091C2403.41 538.714 2404.5 540.967 2404.5 544.43C2404.5 547.06 2405.11 550.076 2403.12 552.146C2401.82 553.501 2400.4 553.641 2398.68 554.217C2397.52 554.605 2396.17 554.447 2394.97 554.589C2394.69 554.622 2395.45 557.045 2395.45 557.484C2395.45 558.904 2395.65 560.492 2395.4 561.893C2395.07 563.689 2393.01 566.076 2391.27 566.541C2390.24 566.816 2389.27 567.244 2388.25 567.55C2387.18 567.872 2385.89 567.628 2384.86 568.094C2383.51 568.714 2381.06 568.214 2379.55 568.214C2379.12 568.214 2377.08 566.813 2377.35 566.541" stroke="#3F6927" stroke-width="15" stroke-linecap="round"/>
</g>
<path d="M2311 2456L2336 2475" stroke="#8DBD73" stroke-width="3" stroke-linecap="round"/>
<path d="M2361 2443L2386 2462" stroke="#8DBD73" stroke-width="3" stroke-linecap="round"/>
<path d="M2299 2422L2351 2462" stroke="#8DBD73" stroke-width="3" stroke-linecap="round"/>
<path d="M2299 2374L2344 2408" stroke="#8DBD73" stroke-width="3" stroke-linecap="round"/>
<path d="M2373 2286L2407 2313" stroke="#8DBD73" stroke-width="3" stroke-linecap="round"/>
<path d="M2344 2354L2378 2381" stroke="#8DBD73" stroke-width="3" stroke-linecap="round"/>
<path d="M2382 2357L2417 2377" stroke="#8DBD73" stroke-width="3" stroke-linecap="round"/>
<path d="M1942.33 2500.98L2140.33 2443.98" stroke="#B3B0B0" stroke-width="5" stroke-linecap="round"/>
<path d="M2020.69 2615.36C2009.09 2602.16 2003.85 2612.53 2002.69 2619.36C1995.23 2623.84 1988.93 2642.04 1997.69 2653.36C2004.56 2662.25 1994.19 2678.36 1991.69 2676.36C1989.19 2674.36 1976.19 2713.86 2020.69 2692.86C2065.19 2671.86 2049.69 2690.36 2073.19 2684.86C2091.99 2680.46 2081.02 2670.69 2073.19 2666.36C2067.35 2669.69 2057.29 2669.86 2063.69 2643.86C2070.09 2617.86 2049.35 2616.69 2038.19 2619.36C2037.19 2623.53 2032.29 2628.56 2020.69 2615.36Z" fill="url(#paint47_radial_1084_2501)"/>
<path d="M1977 2700.5C1971.5 2749 1953 2722 1958 2696.5C1953.2 2682.9 1917 2693.5 1899.5 2700.5C1861.5 2703.5 1870 2671.5 1932 2665.5C1978.27 2661.02 1981.33 2688.83 1977 2700.5Z" fill="url(#paint48_radial_1084_2501)"/>
<ellipse cx="1947.47" cy="2625.48" rx="34.7653" ry="29.673" transform="rotate(4.83914 1947.47 2625.48)" fill="url(#paint49_radial_1084_2501)"/>
<path d="M2108 1687L2095 1725" stroke="#FFFCA2" stroke-width="6" stroke-linecap="round"/>
<path d="M2461 1764.99L2400 1833.99" stroke="#FFFCA2" stroke-width="6" stroke-linecap="round"/>
<path d="M2467 2152.99L2413 2108.99" stroke="#FFFCA2" stroke-width="6" stroke-linecap="round"/>
<path d="M2334 2302.99L2289 2266.99" stroke="#FFFCA2" stroke-width="6" stroke-linecap="round"/>
<path d="M3373 959L2945.93 1225.24L2861.98 1004.55C2861.98 1004.55 2797.74 1031.57 2783.28 1044.14C2768.82 1056.72 2767.15 1062.39 2762.76 1078.79C2758.36 1095.18 2760.32 1148.49 2760.32 1148.49C2760.32 1148.49 2709.31 1114.36 2698.1 1110.26C2686.9 1106.16 2668.13 1114.66 2652.38 1106.02C2636.99 1097.59 2624.35 1070.77 2624.35 1070.77C2624.35 1070.77 2607.47 1035.68 2598.77 1012.31C2580.4 962.959 2582.5 931.553 2567.05 881.195C2560.54 859.97 2553.04 830.898 2549 827.292C2544.97 823.685 2528.77 828.889 2520.73 820.881C2516.71 816.873 2515.43 815.043 2513.5 808.237C2511.58 801.432 2508.21 723.199 2506.34 718.335C2504.49 713.471 2499.76 697.665 2489.76 689.33C2481.34 682.32 2471.23 686.19 2463.9 678.549C2456.58 670.907 2448.82 622.935 2448.82 622.935C2448.82 622.935 2452.76 555.483 2440.43 511.965C2428.1 468.447 2416.46 419.624 2385.39 367.605C2359.66 336.887 2318.87 340.765 2305.76 345.377C2292.66 349.99 2225.45 409.668 2212.66 413.11C2199.86 416.552 2162.83 417.189 2145.92 422.027C2129.01 426.862 2039.02 475.963 2023.94 492.607C2008.86 509.252 1987.94 550.068 1993.27 562.824C1998.6 575.58 2021.98 576.896 2029.51 581.451C2037.03 586.005 2041.06 589.612 2042.98 596.417C2044.91 603.223 2102.86 934.975 2102.86 934.975C2102.86 934.975 2179.66 1337.52 2177.23 1345.32C2174.81 1353.13 2154.84 1354.32 2154.84 1354.32C2154.84 1354.32 2030.23 1361.84 2020.92 1364.5C2011.62 1367.16 1968.19 1384.12 1964.2 1394.34C1960.21 1404.58 2003.79 1411.64 2017.8 1415.8C2031.82 1419.97 2054.75 1492.42 2057.98 1508.38C2061.19 1524.32 2071.84 1541.12 2088.58 1555C2097.45 1562.36 2107.02 1563.15 2109.58 1567.61C2112.13 1572.07 2064.48 1593.7 2064.4 1598.71C2064.3 1603.7 2078.12 1624.42 2085.53 1627.06C2092.95 1629.69 2115.64 1612.61 2118.8 1607.81C2121.96 1603.01 2157.36 1522.14 2157.36 1522.14C2173.35 1493.61 2202.28 1473.38 2219.09 1466.63C2235.88 1459.88 2309.83 1456.69 2309.83 1456.69C2374.34 1459.94 2404.73 1474.99 2450.74 1520.66C2450.74 1520.66 2502.99 1584.48 2523.47 1601.34C2543.94 1618.21 2599.57 1648.37 2599.57 1648.37C2599.57 1648.37 2651.92 1674.51 2674.21 1696.27C2696.49 1718.01 2769.28 1819.44 2774.81 1829.11C2780.34 1838.78 2803.09 1875.11 2809.7 1890.09C2816.31 1905.07 2820.96 1971.68 2819.5 1979.46C2818.04 1987.23 2804.11 2029.93 2800.31 2037.08C2796.53 2044.22 2644.32 2225.35 2644.32 2225.35C2644.32 2225.35 2634.67 2234.94 2632.74 2242.94C2630.45 2252.32 2638.65 2257.83 2636.83 2267.3C2634.91 2277.3 2632.73 2275.62 2622.83 2289.27C2612.92 2302.92 2594.64 2317.37 2578.22 2336.85C2562.1 2355.98 2539.55 2387.94 2539.55 2387.94C2539.55 2387.94 2509.51 2433.35 2492.38 2463.73C2467.78 2507.39 2451.42 2560.69 2439.52 2579.45C2427.62 2598.22 2399.07 2632.56 2399.07 2632.56C2399.07 2632.56 2362.03 2665.87 2345.02 2675.71C2328.02 2685.54 2230.52 2737.01 2230.52 2737.01C2222.25 2741.8 2218.04 2744.93 2215.56 2755.57C2215.56 2755.57 2192.72 2829.17 2191.17 2841.94C2189.63 2854.72 2048.04 3042.39 2006.96 3077.22C1965.89 3112.07 1959.27 3115.98 1950.82 3121.86C1942.37 3127.73 1899.1 3230.97 1890.23 3236.1C1881.37 3241.24 1772.92 3276.99 1755.8 3284.92C1738.69 3292.84 1716.08 3304.94 1715.03 3306.53C1713.98 3308.12 1711.76 3309.41 1718.15 3320.56C1724.52 3331.73 1734.79 3330.74 1777.08 3322.11C1819.37 3313.47 1862.23 3281.75 1878.47 3265.42C1894.72 3249.09 1983.3 3123.58 1983.3 3123.58L2676.81 2330.29C2676.81 2330.29 2722.26 2278.11 2726.44 2263.96C2730.6 2249.81 2700.58 2221.66 2686.43 2226.72C2672.27 2231.78 2651.7 2253.74 2647.99 2248.96C2644.27 2244.19 2645.83 2238.33 2648.99 2233.54C2652.15 2228.73 2801.98 2058.9 2801.98 2058.9C2817.42 2039.56 2823.11 2028.68 2829.64 2009.23C2834.78 1962.06 2832.13 1920.67 2823.25 1893.13C2814.39 1865.6 2784.2 1819.71 2794.96 1807.55C2805.7 1795.39 2804.99 1802.74 2859.67 1764.16C2914.36 1725.59 2845.05 1585.53 2845.05 1585.53C2845.05 1585.53 2939.48 1533.86 2953.73 1522.65C2967.98 1511.43 2998.62 1466.98 3005.27 1463.12C3011.93 1459.27 3038.32 1440.04 3044.45 1440.44C3050.6 1440.86 3209.12 1623.34 3223.21 1629.04C3237.29 1634.76 3289.67 1609.48 3314.14 1576.43C3339.64 1542.01 3340.61 1479.95 3337.3 1468.98C3333.98 1458.03 3312.38 1432.23 3311.34 1423.62C3310.3 1415.02 3312.69 1408.21 3320.91 1404.23C3320.91 1404.23 3522.91 1277.44 3525.87 1275.73C3528.82 1274.02 3514.5 1224.9 3514.5 1224.9L3373 959Z" stroke="#13A9DB" stroke-width="10" stroke-linecap="round" stroke-linejoin="round"/>
<path d="M2292.78 2100.89L2286.85 2095.44L2299.42 2082.3L2305.22 2086.83L2338.51 2049.2L2332.28 1982.79L2325.95 1983.45L2323.62 1962.6L2330.32 1961.89L2324.55 1900.48L2246.33 1872.83L2225.41 1865.43L2062.96 1807.99L2064.9 1802.55L2071.39 1784.41L2077.85 1786.68L2070.87 1804.82L2064.9 1802.55L2062.96 1807.99L2225.41 1865.43L2228.66 1858.77L2248.68 1866.02L2246.33 1872.83L2324.55 1900.48L2330.32 1961.89L2332.28 1982.79L2338.51 2049.2L2305.22 2086.83L2292.78 2100.89Z" fill="#949494"/>
<path d="M2093.5 1727.5L2071.39 1784.41M2324.55 1900.48L2396.5 1837.5M2324.55 1900.48L2330.32 1961.89M2324.55 1900.48L2246.33 1872.83M2338.51 2049.2L2410 2106M2338.51 2049.2L2305.22 2086.83M2338.51 2049.2L2332.28 1982.79M2070.5 2351L2140.91 2272.72M2140.91 2272.72L2108.93 2245.5M2140.91 2272.72L2176.5 2234.45M2176.5 2234.45L2108.93 2170L2006 2286.5M2176.5 2234.45L2208 2200M2208 2200L2284.47 2262.03M2208 2200L2265.9 2131.26M2265.9 2131.26L2239.84 2130.36M2265.9 2131.26L2292.78 2100.89M2292.78 2100.89L2286.85 2095.44L2299.42 2082.3L2305.22 2086.83M2292.78 2100.89L2305.22 2086.83M2332.28 1982.79L2325.95 1983.45L2323.62 1962.6L2330.32 1961.89M2332.28 1982.79L2330.32 1961.89M2225.41 1865.43L2062.96 1807.99L2064.9 1802.55M2225.41 1865.43L2228.66 1858.77L2248.68 1866.02L2246.33 1872.83M2225.41 1865.43L2246.33 1872.83M2071.39 1784.41L2077.85 1786.68L2070.87 1804.82L2064.9 1802.55M2071.39 1784.41L2064.9 1802.55" stroke="#949494" stroke-width="4" stroke-linecap="round" stroke-linejoin="round"/>
<rect x="0.00134093" y="0.697758" width="6.35193" height="16.8936" transform="matrix(0.717672 0.696382 -0.71499 0.699135 2300.61 2082.54)" fill="#949494" stroke="#949494"/>
<rect x="0.557134" y="0.438947" width="3.65302" height="18.1018" transform="matrix(0.993392 -0.114774 0.120877 0.992667 2324.5 1963.65)" fill="#949494" stroke="#949494"/>
<rect x="0.651667" y="-0.290034" width="4.4596" height="19.3241" transform="matrix(0.366688 -0.930344 0.936646 0.350277 2227.49 1865.17)" fill="#949494" stroke="#949494"/>
<rect x="0.296943" y="0.635141" width="5.49712" height="17.1927" transform="matrix(0.942873 0.333153 -0.348986 0.937128 2071.41 1784.35)" fill="#949494" stroke="#949494"/>
</g>
</g>
<defs>
<clipPath id="paint7_diamond_1084_2501_clip_path"><path d="M2000.44 2978.78C2016.85 2967.43 2037.18 2932.45 2042.13 2932C2045.88 2931.37 2062.92 2915.25 2066.71 2910.19C2070.51 2905.14 2075.33 2880.66 2080.5 2874.57C2085.67 2868.47 2100.92 2860.27 2102.48 2858.01C2104.03 2855.74 2111.15 2840.49 2108.63 2836.91C2106.1 2833.33 2091.89 2838.54 2089.82 2840.09C2087.76 2841.65 2048.05 2874.85 2041.87 2879.51C2035.68 2884.17 2019.08 2888.99 2016.85 2891.78C2014.6 2894.56 2001.62 2895.55 1999.55 2897.11L1717.71 2820L1683.82 2910.19C1683.82 2910.19 1984.03 2990.13 2000.44 2978.78Z"/></clipPath><radialGradient id="paint0_radial_1084_2501" cx="0" cy="0" r="1" gradientUnits="userSpaceOnUse" gradientTransform="translate(1975.85 1799.48) rotate(88.6006) scale(1609.46 1860.01)">
<stop stop-color="#CEEABE"/>
<stop offset="1" stop-color="#7BAE5F"/>
</radialGradient>
<radialGradient id="paint1_radial_1084_2501" cx="0" cy="0" r="1" gradientUnits="userSpaceOnUse" gradientTransform="translate(826.373 1877.01) rotate(88.5737) scale(324.236 277.953)">
<stop offset="0.350962" stop-color="#B7D8F3"/>
<stop offset="1" stop-color="#7EB2DD"/>
</radialGradient>
<radialGradient id="paint2_radial_1084_2501" cx="0" cy="0" r="1" gradientUnits="userSpaceOnUse" gradientTransform="translate(2175.04 994.876) rotate(86.4675) scale(394.23 73.6591)">
<stop offset="0.350962" stop-color="#B7D8F3"/>
<stop offset="1" stop-color="#7EB2DD"/>
</radialGradient>
<radialGradient id="paint3_radial_1084_2501" cx="0" cy="0" r="1" gradientUnits="userSpaceOnUse" gradientTransform="translate(2064 974.591) rotate(88.5737) scale(359.008 68.082)">
<stop offset="0.350962" stop-color="#B7D8F3"/>
<stop offset="1" stop-color="#7EB2DD"/>
</radialGradient>
<radialGradient id="paint4_radial_1084_2501" cx="0" cy="0" r="1" gradientUnits="userSpaceOnUse" gradientTransform="translate(2310.54 1147.16) rotate(88.5737) scale(272.158 49.5584)">
<stop offset="0.350962" stop-color="#B7D8F3"/>
<stop offset="1" stop-color="#7EB2DD"/>
</radialGradient>
<radialGradient id="paint5_radial_1084_2501" cx="0" cy="0" r="1" gradientUnits="userSpaceOnUse" gradientTransform="translate(2229.61 710.164) rotate(91.437) scale(123.437 36.2887)">
<stop offset="0.350962" stop-color="#B7D8F3"/>
<stop offset="1" stop-color="#7EB2DD"/>
</radialGradient>
<radialGradient id="paint6_radial_1084_2501" cx="0" cy="0" r="1" gradientUnits="userSpaceOnUse" gradientTransform="translate(2506.63 1097.47) rotate(88.5737) scale(411.668 204.907)">
<stop offset="0.350962" stop-color="#B7D8F3"/>
<stop offset="1" stop-color="#7EB2DD"/>
</radialGradient>
<linearGradient id="paint7_diamond_1084_2501" x1="0" y1="0" x2="500" y2="500" gradientUnits="userSpaceOnUse">
<stop offset="0.350962" stop-color="#B7D8F3"/>
<stop offset="1" stop-color="#7EB2DD"/>
</linearGradient>
<radialGradient id="paint8_radial_1084_2501" cx="0" cy="0" r="1" gradientUnits="userSpaceOnUse" gradientTransform="translate(650.66 1972.89) rotate(88.5737) scale(334.816 294.195)">
<stop offset="0.350962" stop-color="#B7D8F3"/>
<stop offset="1" stop-color="#7EB2DD"/>
</radialGradient>
<radialGradient id="paint9_radial_1084_2501" cx="0" cy="0" r="1" gradientUnits="userSpaceOnUse" gradientTransform="translate(650.66 1972.89) rotate(88.5737) scale(334.816 294.195)">
<stop stop-color="#B7D8F3"/>
<stop offset="1" stop-color="#7EB2DD"/>
</radialGradient>
<radialGradient id="paint10_radial_1084_2501" cx="0" cy="0" r="1" gradientUnits="userSpaceOnUse" gradientTransform="translate(2454.31 1695.96) rotate(88.5737) scale(213.87 295.117)">
<stop stop-color="#B7D8F3"/>
<stop offset="1" stop-color="#5D8EB7"/>
</radialGradient>
<linearGradient id="paint11_linear_1084_2501" x1="1971.71" y1="2027.61" x2="1998.31" y2="3095.75" gradientUnits="userSpaceOnUse">
<stop offset="0.0192308" stop-color="#B7D8F3"/>
<stop offset="1" stop-color="#74ADDB"/>
</linearGradient>
<radialGradient id="paint12_radial_1084_2501" cx="0" cy="0" r="1" gradientUnits="userSpaceOnUse" gradientTransform="translate(1457.19 1184.84) rotate(88.5737) scale(503.577 589.117)">
<stop offset="0.350962" stop-color="#B7D8F3"/>
<stop offset="1" stop-color="#7EB2DD"/>
</radialGradient>
<radialGradient id="paint13_radial_1084_2501" cx="0" cy="0" r="1" gradientUnits="userSpaceOnUse" gradientTransform="translate(1491.14 1963.15) rotate(88.5737) scale(617.317 970.125)">
<stop offset="0.350962" stop-color="#B7D8F3"/>
<stop offset="1" stop-color="#7EB2DD"/>
</radialGradient>
<radialGradient id="paint14_radial_1084_2501" cx="0" cy="0" r="1" gradientUnits="userSpaceOnUse" gradientTransform="translate(1236.86 2549.6) rotate(94.3111) scale(19.8029 38.8333)">
<stop stop-color="#B7D8F3"/>
<stop offset="1" stop-color="#6C9BC0"/>
</radialGradient>
<radialGradient id="paint15_radial_1084_2501" cx="0" cy="0" r="1" gradientUnits="userSpaceOnUse" gradientTransform="translate(3275.73 1203.77) rotate(60.225) scale(41.1281 40.9972)">
<stop offset="0.350962" stop-color="#B7D8F3"/>
<stop offset="1" stop-color="#7EB2DD"/>
</radialGradient>
<radialGradient id="paint16_radial_1084_2501" cx="0" cy="0" r="1" gradientUnits="userSpaceOnUse" gradientTransform="translate(2329.43 2055.26) rotate(88.5737) scale(382.534 247.03)">
<stop offset="0.471154" stop-color="#EDEACA"/>
<stop offset="1" stop-color="#C2BC81"/>
</radialGradient>
<radialGradient id="paint17_radial_1084_2501" cx="0" cy="0" r="1" gradientUnits="userSpaceOnUse" gradientTransform="translate(2269.9 1756.74) rotate(88.5737) scale(82.8735 194.96)">
<stop offset="0.5625" stop-color="#DBD491"/>
<stop offset="1" stop-color="#C3B854"/>
</radialGradient>
<radialGradient id="paint18_radial_1084_2501" cx="0" cy="0" r="1" gradientUnits="userSpaceOnUse" gradientTransform="translate(2600.65 1947.97) rotate(88.5737) scale(187.597 99.7038)">
<stop stop-color="#AFB1B0"/>
<stop offset="1" stop-color="#969899"/>
</radialGradient>
<radialGradient id="paint19_radial_1084_2501" cx="0" cy="0" r="1" gradientUnits="userSpaceOnUse" gradientTransform="translate(2729.22 1724) rotate(58.6224) scale(44.5492 15.3761)">
<stop stop-color="#B2B3B4"/>
<stop offset="1" stop-color="#9A9B9C"/>
</radialGradient>
<radialGradient id="paint20_radial_1084_2501" cx="0" cy="0" r="1" gradientUnits="userSpaceOnUse" gradientTransform="translate(2764.97 1688.47) rotate(58.5755) scale(29.9849 16.2304)">
<stop stop-color="#B2B3B4"/>
<stop offset="1" stop-color="#9A9B9C"/>
</radialGradient>
<radialGradient id="paint21_radial_1084_2501" cx="0" cy="0" r="1" gradientUnits="userSpaceOnUse" gradientTransform="translate(2698.25 1883.88) rotate(77.5955) scale(29.9849 16.2304)">
<stop stop-color="#B2B3B4"/>
<stop offset="1" stop-color="#9A9B9C"/>
</radialGradient>
<radialGradient id="paint22_radial_1084_2501" cx="0" cy="0" r="1" gradientUnits="userSpaceOnUse" gradientTransform="translate(1331.08 2682.54) rotate(18.8812) scale(37.9798 22.42)">
<stop stop-color="#D69090"/>
<stop offset="1" stop-color="#DD7E5E"/>
</radialGradient>
<radialGradient id="paint23_radial_1084_2501" cx="0" cy="0" r="1" gradientUnits="userSpaceOnUse" gradientTransform="translate(2818.56 1670.33) rotate(58.8704) scale(44.5502 23.918)">
<stop stop-color="#B2B3B4"/>
<stop offset="1" stop-color="#9A9B9C"/>
</radialGradient>
<radialGradient id="paint24_radial_1084_2501" cx="0" cy="0" r="1" gradientUnits="userSpaceOnUse" gradientTransform="translate(1026.2 2229.7) rotate(88.5737) scale(28.2037 27.5741)">
<stop stop-color="#B2B3B4"/>
<stop offset="1" stop-color="#9A9B9C"/>
</radialGradient>
<radialGradient id="paint25_radial_1084_2501" cx="0" cy="0" r="1" gradientUnits="userSpaceOnUse" gradientTransform="translate(1084.67 2295.38) rotate(88.5737) scale(33.3583 30.0732)">
<stop offset="0.600962" stop-color="#5F8D4D"/>
<stop offset="1" stop-color="#2C5D19"/>
</radialGradient>
<radialGradient id="paint26_radial_1084_2501" cx="0" cy="0" r="1" gradientUnits="userSpaceOnUse" gradientTransform="translate(1089.93 2332.62) rotate(60.225) scale(9.86049 9.8291)">
<stop stop-color="#AB9635"/>
<stop offset="1" stop-color="#8E7A1D"/>
</radialGradient>
<radialGradient id="paint27_radial_1084_2501" cx="0" cy="0" r="1" gradientUnits="userSpaceOnUse" gradientTransform="translate(1048.38 2329.86) rotate(60.225) scale(9.86049 9.8291)">
<stop stop-color="#AB9635"/>
<stop offset="1" stop-color="#8E7A1D"/>
</radialGradient>
<radialGradient id="paint28_radial_1084_2501" cx="0" cy="0" r="1" gradientUnits="userSpaceOnUse" gradientTransform="translate(1055.7 2286.75) rotate(60.225) scale(9.86049 9.82912)">
<stop stop-color="#AB9635"/>
<stop offset="1" stop-color="#8E7A1D"/>
</radialGradient>
<radialGradient id="paint29_radial_1084_2501" cx="0" cy="0" r="1" gradientUnits="userSpaceOnUse" gradientTransform="translate(1100.44 2255.51) rotate(60.225) scale(9.86049 9.8291)">
<stop stop-color="#AB9635"/>
<stop offset="1" stop-color="#8E7A1D"/>
</radialGradient>
<radialGradient id="paint30_radial_1084_2501" cx="0" cy="0" r="1" gradientUnits="userSpaceOnUse" gradientTransform="translate(1118.35 2305.45) rotate(60.225) scale(9.86049 9.8291)">
<stop stop-color="#AB9635"/>
<stop offset="1" stop-color="#8E7A1D"/>
</radialGradient>
<linearGradient id="paint31_linear_1084_2501" x1="1430.91" y1="2887.78" x2="1432.55" y2="2953.56" gradientUnits="userSpaceOnUse">
<stop stop-color="#B2B3B4"/>
<stop offset="1" stop-color="#838383"/>
</linearGradient>
<linearGradient id="paint32_linear_1084_2501" x1="1085.42" y1="2539.12" x2="1088.7" y2="2553.19" gradientUnits="userSpaceOnUse">
<stop stop-color="#B2B3B4"/>
<stop offset="1" stop-color="#4D4E4E"/>
</linearGradient>
<radialGradient id="paint33_radial_1084_2501" cx="0" cy="0" r="1" gradientUnits="userSpaceOnUse" gradientTransform="translate(1260.84 2256.06) rotate(80.1555) scale(27.3248 47.5562)">
<stop offset="0.403846" stop-color="#B2B3B4"/>
<stop offset="1" stop-color="#949494"/>
</radialGradient>
<radialGradient id="paint34_radial_1084_2501" cx="0" cy="0" r="1" gradientUnits="userSpaceOnUse" gradientTransform="translate(1288.6 2315.88) rotate(88.5737) scale(28.8413 41.5876)">
<stop offset="0.403846" stop-color="#B2B3B4"/>
<stop offset="1" stop-color="#949494"/>
</radialGradient>
<radialGradient id="paint35_radial_1084_2501" cx="0" cy="0" r="1" gradientUnits="userSpaceOnUse" gradientTransform="translate(1199.3 2396.45) rotate(97.7138) scale(49.4254 28.6256)">
<stop offset="0.403846" stop-color="#B2B3B4"/>
<stop offset="1" stop-color="#949494"/>
</radialGradient>
<radialGradient id="paint36_radial_1084_2501" cx="0" cy="0" r="1" gradientUnits="userSpaceOnUse" gradientTransform="translate(1851.65 2631.24) rotate(-82.7514) scale(48.3056 28.5746)">
<stop stop-color="#D9D9D9"/>
<stop offset="1" stop-color="#B3B0B0"/>
</radialGradient>
<radialGradient id="paint37_radial_1084_2501" cx="0" cy="0" r="1" gradientUnits="userSpaceOnUse" gradientTransform="translate(2269.3 2561.01) rotate(-8.25944) scale(31.3249 85.4869)">
<stop stop-color="#B2B3B4"/>
<stop offset="1" stop-color="#8C8C8C"/>
</radialGradient>
<radialGradient id="paint38_radial_1084_2501" cx="0" cy="0" r="1" gradientUnits="userSpaceOnUse" gradientTransform="translate(141.325 1762.98) rotate(15.7655) scale(196.907 197.74)">
<stop stop-color="#9FC68A"/>
<stop offset="1" stop-color="#84B16C"/>
</radialGradient>
<radialGradient id="paint39_radial_1084_2501" cx="0" cy="0" r="1" gradientUnits="userSpaceOnUse" gradientTransform="translate(136.839 1724.5) rotate(88.5737) scale(81.3948 81.2585)">
<stop stop-color="#B2B3B4"/>
<stop offset="1" stop-color="#797A7B"/>
</radialGradient>
<radialGradient id="paint40_radial_1084_2501" cx="0" cy="0" r="1" gradientUnits="userSpaceOnUse" gradientTransform="translate(2535.39 2045.04) rotate(90) scale(30.0563 17.7794)">
<stop stop-color="#D9D9D9"/>
<stop offset="1" stop-color="#B3B0B0"/>
</radialGradient>
<radialGradient id="paint41_radial_1084_2501" cx="0" cy="0" r="1" gradientUnits="userSpaceOnUse" gradientTransform="translate(2022.12 2325.9) rotate(-150) scale(48.3056 28.5746)">
<stop stop-color="#D9D9D9"/>
<stop offset="1" stop-color="#B3B0B0"/>
</radialGradient>
<radialGradient id="paint42_radial_1084_2501" cx="0" cy="0" r="1" gradientUnits="userSpaceOnUse" gradientTransform="translate(1305.56 3064.32) rotate(68.3092) scale(99.7777 58.5042)">
<stop stop-color="#99BD85"/>
<stop offset="1" stop-color="#80AA68"/>
</radialGradient>
<radialGradient id="paint43_radial_1084_2501" cx="0" cy="0" r="1" gradientUnits="userSpaceOnUse" gradientTransform="translate(1554.33 2593.68) rotate(107.317) scale(83.2057 213.936)">
<stop stop-color="#96BB82"/>
<stop offset="1" stop-color="#80AA68"/>
</radialGradient>
<radialGradient id="paint44_radial_1084_2501" cx="0" cy="0" r="1" gradientUnits="userSpaceOnUse" gradientTransform="translate(1173.67 2125.4) rotate(177.105) scale(39.9902 90.3351)">
<stop stop-color="#96BB82"/>
<stop offset="1" stop-color="#80AA68"/>
</radialGradient>
<radialGradient id="paint45_radial_1084_2501" cx="0" cy="0" r="1" gradientUnits="userSpaceOnUse" gradientTransform="translate(798.717 1295.99) rotate(107.317) scale(33.5548 86.2751)">
<stop stop-color="#96BB82"/>
<stop offset="1" stop-color="#80AA68"/>
</radialGradient>
<radialGradient id="paint46_radial_1084_2501" cx="0" cy="0" r="1" gradientUnits="userSpaceOnUse" gradientTransform="translate(1504.32 2809.48) rotate(90) scale(141 141)">
<stop stop-color="#96BB82"/>
<stop offset="1" stop-color="#80AA68"/>
</radialGradient>
<radialGradient id="paint47_radial_1084_2501" cx="0" cy="0" r="1" gradientUnits="userSpaceOnUse" gradientTransform="translate(2035.78 2654.02) rotate(90) scale(45.0155 47.7843)">
<stop stop-color="#ECE7B0"/>
<stop offset="1" stop-color="#C3BD83"/>
</radialGradient>
<radialGradient id="paint48_radial_1084_2501" cx="0" cy="0" r="1" gradientUnits="userSpaceOnUse" gradientTransform="translate(1927.55 2696.2) rotate(20.7905) scale(57.1775 93.2781)">
<stop stop-color="#DDD8A0"/>
<stop offset="0.580378" stop-color="#C2BC81"/>
</radialGradient>
<radialGradient id="paint49_radial_1084_2501" cx="0" cy="0" r="1" gradientUnits="userSpaceOnUse" gradientTransform="translate(1947.47 2625.48) rotate(90) scale(29.673 34.7653)">
<stop offset="0.3125" stop-color="#ECE7B0"/>
<stop offset="1" stop-color="#C2BC81"/>
</radialGradient>
<clipPath id="clip0_1084_2501">
<rect width="4170" height="3576" fill="white"/>
</clipPath>
<clipPath id="clip1_1084_2501">
<rect width="3815.81" height="3176.75" fill="white" transform="translate(-40 281.982) rotate(-1.42634)"/>
</clipPath>
</defs>
</svg>
