<svg width="48" height="107" viewBox="0 0 48 107" fill="none" xmlns="http://www.w3.org/2000/svg">
<path d="M46.9486 105.245C47.0984 105.94 46.4953 106.565 45.7954 106.44L18.7227 101.61C17.9351 101.469 17.6233 100.506 18.1788 99.9307L39.4576 77.8782C40.0131 77.3024 40.9862 77.5798 41.1548 78.3619L46.9486 105.245Z" fill="#FED061"/>
<path d="M6.77643 0.905531C-9.25509 39.5549 13.0468 81.2167 26.7231 99.034L36.4625 85.1067C26.1278 71.1759 8.46659 36.1668 20.4989 7.57637L6.77643 0.905531Z" fill="#FED061"/>
<path d="M46.9486 105.245C47.0984 105.94 46.4953 106.565 45.7954 106.44L18.7227 101.61C17.9351 101.469 17.6233 100.506 18.1788 99.9307L39.4576 77.8782C40.0131 77.3024 40.9862 77.5798 41.1548 78.3619L46.9486 105.245Z" stroke="#FED061"/>
<path d="M6.77643 0.905531C-9.25509 39.5549 13.0468 81.2167 26.7231 99.034L36.4625 85.1067C26.1278 71.1759 8.46659 36.1668 20.4989 7.57637L6.77643 0.905531Z" stroke="#FED061"/>
</svg>
