<svg width="66" height="74" viewBox="0 0 66 74" fill="none" xmlns="http://www.w3.org/2000/svg">
<path d="M1.60724 66.1339C0.788024 67.2962 1.40947 68.9182 2.79565 69.2356L21.177 73.4442C22.7367 73.8013 24.0634 72.2733 23.491 70.7791L15.9727 51.1568C15.4002 49.6627 13.3921 49.4124 12.4703 50.7203L1.60724 66.1339Z" fill="#FED061"/>
<path d="M65.0702 0.964966C64.7769 35.6516 34.2574 60.2134 18.0474 69.3763L15.1296 55.5928C27.5302 48.3124 52.3526 27.323 52.4374 1.60774L65.0702 0.964966Z" fill="#FED061"/>
<path d="M1.60724 66.1339C0.788024 67.2962 1.40947 68.9182 2.79565 69.2356L21.177 73.4442C22.7367 73.8013 24.0634 72.2733 23.491 70.7791L15.9727 51.1568C15.4002 49.6627 13.3921 49.4124 12.4703 50.7203L1.60724 66.1339Z" stroke="#FED061"/>
<path d="M65.0702 0.964966C64.7769 35.6516 34.2574 60.2134 18.0474 69.3763L15.1296 55.5928C27.5302 48.3124 52.3526 27.323 52.4374 1.60774L65.0702 0.964966Z" stroke="#FED061"/>
</svg>
