<svg width="66" height="69" viewBox="0 0 66 69" fill="none" xmlns="http://www.w3.org/2000/svg">
<path d="M62.3074 1.51983C62.9431 1.20129 63.6988 1.62925 63.7525 2.33825L65.4329 24.4972C65.4934 25.2949 64.6391 25.8372 63.943 25.443L42.3949 13.2397C41.6987 12.8454 41.7244 11.8339 42.4396 11.4755L62.3074 1.51983Z" fill="#FED061"/>
<path d="M9 67.5C23.5 63 51 44.5 59.5 22L48 14.5C42 29 21.5 49 1.5 56L9 67.5Z" fill="#FED061"/>
<path d="M62.3074 1.51983C62.9431 1.20129 63.6988 1.62925 63.7525 2.33825L65.4329 24.4972C65.4934 25.2949 64.6391 25.8372 63.943 25.443L42.3949 13.2397C41.6987 12.8454 41.7244 11.8339 42.4396 11.4755L62.3074 1.51983Z" stroke="#FED061"/>
<path d="M9 67.5C23.5 63 51 44.5 59.5 22L48 14.5C42 29 21.5 49 1.5 56L9 67.5Z" stroke="#FED061"/>
</svg>
