<svg width="75" height="101" viewBox="0 0 75 101" fill="none" xmlns="http://www.w3.org/2000/svg">
<path d="M58.3678 99.2959C58.8 99.8605 59.6668 99.8065 60.0254 99.1925L73.8966 75.447C74.3001 74.7562 73.7693 73.8947 72.9708 73.9445L42.3855 75.8521C41.587 75.9019 41.1674 76.8227 41.6536 77.458L58.3678 99.2959Z" fill="#FED061"/>
<path d="M4.95972 1.07141C44.7812 13.9178 62.0478 57.9059 66.7494 79.8693L49.8311 78.2572C45.9228 61.3577 30.7137 25.2157 1.14392 15.8446L4.95972 1.07141Z" fill="#FED061"/>
<path d="M58.3678 99.2959C58.8 99.8605 59.6668 99.8065 60.0254 99.1925L73.8966 75.447C74.3001 74.7562 73.7693 73.8947 72.9708 73.9445L42.3855 75.8521C41.587 75.9019 41.1674 76.8227 41.6536 77.458L58.3678 99.2959Z" stroke="#FED061"/>
<path d="M4.95972 1.07141C44.7812 13.9178 62.0478 57.9059 66.7494 79.8693L49.8311 78.2572C45.9228 61.3577 30.7137 25.2157 1.14392 15.8446L4.95972 1.07141Z" stroke="#FED061"/>
</svg>
