<svg width="85" height="60" viewBox="0 0 85 60" fill="none" xmlns="http://www.w3.org/2000/svg">
<path d="M19.3028 0.884258C19.9762 0.452607 20.8585 0.946774 20.8419 1.74656L20.7286 7.17723C29.6529 9.1622 41.3534 13.0298 52.4844 19.5591C65.6011 27.2531 77.9612 38.6647 84.0196 55.0776L84.2042 55.5757L71.5909 59.3989L71.1378 59.5356L70.9757 59.0913C66.6405 47.1576 56.9384 38.3533 46.5118 32.1929C37.2305 26.7092 27.4187 23.3473 20.4268 21.7456L20.3282 26.5054C20.3113 27.305 19.4088 27.7626 18.754 27.3032L0.561597 14.5405C-0.0203213 14.1322 -0.00259479 13.2642 0.595777 12.8804L19.3028 0.884258Z" fill="#FED061"/>
</svg>
